<?xml version="1.0" encoding="UTF-8"?>
<!-- Generator: https://ezgif.com/png-to-svg -->
<svg version="1.1" xmlns="http://www.w3.org/2000/svg" width="500" height="281">
<path d="M0 0 C165 0 330 0 500 0 C500 92.73 500 185.46 500 281 C335 281 170 281 0 281 C0 188.27 0 95.54 0 0 Z " fill="#FEFEFE" transform="translate(0,0)"/>
<path d="M0 0 C1.72 0.42 1.72 0.42 3.46 0.84 C23.12 5.97 41.13 14.84 55.88 28.97 C57.83 30.84 59.84 32.5 61.94 34.19 C84.12 53.59 97.41 85.15 100 114 C102.34 152.9 90.92 186.18 65.38 215.44 C43.23 239.22 12.07 255.25 -20.64 256.48 C-54.39 257.44 -87.12 249.96 -113 227 C-114.45 225.75 -114.45 225.75 -115.92 224.48 C-141.02 202.45 -157.01 171.39 -160 138 C-161.87 104.64 -153.73 73.49 -133 47 C-132.27 46.04 -131.54 45.09 -130.79 44.1 C-126.74 38.88 -126.74 38.88 -125 37 C-124.34 37 -123.68 37 -123 37 C-122.67 36.01 -122.34 35.02 -122 34 C-121.34 34 -120.68 34 -120 34 C-120 33.34 -120 32.68 -120 32 C-88.99 2.09 -41.79 -11.23 0 0 Z " fill="#E0672B" transform="translate(280,14)"/>
<path d="M0 0 C1.72 0.42 1.72 0.42 3.46 0.84 C23.12 5.97 41.13 14.84 55.88 28.97 C57.83 30.84 59.84 32.5 61.94 34.19 C84.12 53.59 97.41 85.15 100 114 C102.34 152.9 90.92 186.18 65.38 215.44 C43.23 239.22 12.07 255.25 -20.64 256.48 C-54.39 257.44 -87.12 249.96 -113 227 C-114.45 225.75 -114.45 225.75 -115.92 224.48 C-141.02 202.45 -157.01 171.39 -160 138 C-161.87 104.64 -153.73 73.49 -133 47 C-132.27 46.04 -131.54 45.09 -130.79 44.1 C-126.74 38.88 -126.74 38.88 -125 37 C-124.34 37 -123.68 37 -123 37 C-122.67 36.01 -122.34 35.02 -122 34 C-121.34 34 -120.68 34 -120 34 C-120 33.34 -120 32.68 -120 32 C-88.99 2.09 -41.79 -11.23 0 0 Z M-31 14 C-32.76 18.97 -34.33 23.74 -35 29 C-36.9 26.15 -38.23 23.43 -39.62 20.31 C-40.07 19.32 -40.52 18.32 -40.98 17.3 C-41.48 16.16 -41.48 16.16 -42 15 C-44.64 15 -47.28 15 -50 15 C-50 20.28 -50 25.56 -50 31 C-51.49 30.51 -51.49 30.51 -53 30 C-53 31.32 -53 32.64 -53 34 C-53.99 34.49 -53.99 34.49 -55 35 C-55 32.69 -55 30.38 -55 28 C-59 26.4 -62.05 27.71 -66 29 C-66.5 26.52 -66.5 26.52 -67 24 C-64.03 23.34 -61.06 22.68 -58 22 C-58 20.68 -58 19.36 -58 18 C-63.11 19.07 -68.07 20.23 -73 22 C-71.76 28.17 -70.1 34.07 -68 40 C-68.66 40 -69.32 40 -70 40 C-70 40.66 -70 41.32 -70 42 C-72.98 43.24 -75.86 44.26 -79 45 C-79.49 44 -79.49 44 -79.99 42.99 C-82.18 38.56 -84.35 34.18 -87 30 C-88.98 30.99 -88.98 30.99 -91 32 C-89.17 36.74 -87.08 41.36 -85 46 C-85.8 46.27 -86.61 46.54 -87.44 46.81 C-88.71 47.4 -88.71 47.4 -90 48 C-91.05 50.89 -91.05 50.89 -91.44 53.56 C-92 56 -92 56 -94 58 C-98 58 -98 58 -99.74 56.43 C-104.03 50.67 -104.03 50.67 -103.88 47 C-103.59 46.34 -103.3 45.68 -103 45 C-99.85 44.3 -97.27 44 -94 44 C-94.5 41.24 -94.5 41.24 -96 39 C-99 38.67 -100.6 38.77 -103.24 40.29 C-106.58 43.14 -108.7 45.06 -110.06 49.31 C-108.37 55.2 -104.85 59.31 -100 63 C-96.58 63.84 -94.55 63.56 -91 63 C-92.31 66.83 -93.86 69.18 -96.69 72.06 C-110.6 87.38 -116.83 108.68 -116.31 129.08 C-115.34 149.07 -108.88 166.7 -96 182 C-95.3 182.87 -94.6 183.75 -93.88 184.64 C-85.81 194.27 -74.02 202.99 -62 207 C-62 208.32 -62 209.64 -62 211 C-63.32 211 -64.64 211 -66 211 C-66.33 210.34 -66.66 209.68 -67 209 C-69.81 208.31 -69.81 208.31 -73.06 207.88 C-74.17 207.71 -75.27 207.54 -76.41 207.37 C-77.26 207.25 -78.12 207.12 -79 207 C-79.33 207.99 -79.66 208.98 -80 210 C-78.68 210.66 -77.36 211.32 -76 212 C-76.71 216.68 -78.53 219.78 -81.04 223.72 C-82.23 226.55 -81.85 228.1 -81 231 C-80.01 231 -79.02 231 -78 231 C-76.35 227.7 -74.7 224.4 -73 221 C-72.34 221 -71.68 221 -71 221 C-70.67 219.68 -70.34 218.36 -70 217 C-68.35 217.66 -66.7 218.32 -65 219 C-65 219.99 -65 220.98 -65 222 C-65.66 222 -66.32 222 -67 222 C-67.08 225.56 -66.89 228.57 -66 232 C-65.96 233.67 -65.95 235.33 -66 237 C-64.68 237 -63.36 237 -62 237 C-61.75 236.3 -61.49 235.6 -61.23 234.88 C-59.19 229.24 -57.12 223.61 -55 218 C-54.34 218 -53.68 218 -53 218 C-53.07 218.61 -53.14 219.21 -53.22 219.84 C-53.72 224.36 -54.12 228.88 -54.25 233.44 C-54.28 234.24 -54.3 235.04 -54.33 235.87 C-53.91 238.55 -53.13 239.37 -51 241 C-48.09 241.97 -46.03 242.2 -43 242.25 C-42.13 242.28 -41.27 242.3 -40.38 242.33 C-37.97 242.18 -37.97 242.18 -36.23 240.78 C-34.69 238.56 -34.51 236.99 -34.31 234.31 C-34.21 232.89 -34.11 231.47 -34 230 C-37.3 230 -40.6 230 -44 230 C-44 230.99 -44 231.98 -44 233 C-42.35 233 -40.7 233 -39 233 C-39.33 234.32 -39.66 235.64 -40 237 C-42.64 237 -45.28 237 -48 237 C-48 232.38 -48 227.76 -48 223 C-44.7 223 -41.4 223 -38 223 C-38 223.99 -38 224.98 -38 226 C-36.35 226.33 -34.7 226.66 -33 227 C-32.58 224.63 -32.58 224.63 -33 222 C-38.13 218.01 -42.67 217.88 -49 218 C-49 216.68 -49 215.36 -49 214 C-48.02 214.01 -48.02 214.01 -47.02 214.02 C-39.94 214.05 -32.89 213.84 -25.81 213.5 C-24.24 213.43 -24.24 213.43 -22.64 213.36 C-20.09 213.24 -17.55 213.12 -15 213 C-14.67 214.32 -14.34 215.64 -14 217 C-14.92 216.98 -15.83 216.95 -16.77 216.93 C-17.96 216.91 -19.15 216.89 -20.38 216.88 C-21.56 216.85 -22.74 216.83 -23.96 216.8 C-27.11 216.67 -27.11 216.67 -29 219 C-29.8 226.58 -28.71 234.46 -28 242 C-22.06 242.33 -16.12 242.66 -10 243 C-10.66 242.67 -11.32 242.34 -12 242 C-12 241.01 -12 240.02 -12 239 C-10.35 239.33 -8.7 239.66 -7 240 C-6.67 239.34 -6.34 238.68 -6 238 C-4.35 238.33 -2.7 238.66 -1 239 C-1.33 236.36 -1.66 233.72 -2 231 C0.64 230.67 3.28 230.34 6 230 C6.41 230.82 6.82 231.65 7.25 232.5 C7.83 233.32 8.4 234.15 9 235 C10.32 235 11.64 235 13 235 C12.43 230.87 12.43 230.87 11 227 C10.34 227 9.68 227 9 227 C9.33 226.34 9.66 225.68 10 225 C10.04 223 10.04 221 10 219 C11.01 219.14 11.01 219.14 12.05 219.29 C12.94 219.4 13.83 219.51 14.75 219.62 C15.63 219.74 16.51 219.86 17.42 219.98 C20.28 220 21.52 219.32 24 218 C25.32 218 26.64 218 28 218 C28 219.32 28 220.64 28 222 C25.69 222.99 23.38 223.98 21 225 C21 224.34 21 223.68 21 223 C19.68 223.33 18.36 223.66 17 224 C17.99 226.48 17.99 226.48 19 229 C23.48 228.77 26.84 228.54 30.5 225.81 C33.23 223.23 33.23 223.23 33.56 219.94 C32.94 216.68 32.51 215.18 30 213 C25.92 212.49 24.47 212.69 21 215 C18.31 215.12 18.31 215.12 16 215 C16.33 213.68 16.66 212.36 17 211 C19.97 210.67 22.94 210.34 26 210 C26.33 209.01 26.66 208.02 27 207 C26.03 205.32 26.03 205.32 24.56 203.81 C23.72 202.88 22.87 201.96 22 201 C20.68 201.33 19.36 201.66 18 202 C18 201.01 18 200.02 18 199 C19.65 199 21.3 199 23 199 C23.16 198.15 23.33 197.31 23.5 196.44 C25 193 25.72 192.18 28.5 189.94 C43.7 177.36 53.07 157.22 56 138 C56.28 134.6 56.33 131.22 56.31 127.81 C56.31 126.9 56.3 125.99 56.3 125.05 C56.01 108.13 51.07 93.25 42.03 79.02 C39.09 74.37 39.09 74.37 38.42 71.63 C38.28 71.09 38.14 70.55 38 70 C37.01 69.67 36.02 69.34 35 69 C35 68.01 35 67.02 35 66 C35.66 66 36.32 66 37 66 C37 66.66 37 67.32 37 68 C42.94 67.5 42.94 67.5 49 67 C49.33 68.65 49.66 70.3 50 72 C50.66 71.67 51.32 71.34 52 71 C52.22 70.01 52.22 70.01 52.44 69 C52.62 68.34 52.81 67.68 53 67 C53.99 66.67 54.98 66.34 56 66 C56 64.02 56 62.04 56 60 C56.66 59.67 57.32 59.34 58 59 C56.87 58.36 55.73 57.72 54.56 57.06 C51.12 55.13 51.12 55.13 50 54 C49.96 51.67 49.96 49.33 50 47 C48.68 47 47.36 47 46 47 C43.79 49.2 43.79 49.2 41.81 52 C40.56 53.68 39.29 55.35 38 57 C37.67 57 37.34 57 37 57 C37.22 56.13 37.43 55.26 37.66 54.37 C37.93 53.21 38.21 52.06 38.5 50.88 C38.92 49.17 38.92 49.17 39.34 47.43 C39.97 44.14 40.31 41.33 40 38 C37.61 36.06 37.61 36.06 35 35 C34.44 35.66 33.89 36.32 33.31 37 C31 39 31 39 28.25 39.25 C27.51 39.17 26.76 39.09 26 39 C26.12 38.11 26.12 38.11 26.25 37.21 C26.67 32.48 26.67 32.48 24.76 28.32 C20.24 24.8 15.62 24.14 10 24 C8.99 25.79 8 27.58 7 29.38 C6.44 30.37 5.89 31.37 5.31 32.4 C3.85 34.81 3.85 34.81 4 37 C3.34 37 2.68 37 2 37 C2.06 35.81 2.12 34.62 2.18 33.39 C2.22 31.82 2.27 30.25 2.31 28.69 C2.35 27.9 2.4 27.12 2.44 26.31 C2.49 24.1 2.46 22.16 2 20 C-1.55 16.84 -5.36 16.24 -9.97 15.88 C-12.16 15.82 -12.16 15.82 -14.06 17.56 C-15.24 20.62 -15.41 22.75 -15 26 C-12.79 29.64 -8.93 30.04 -5 31 C-5 32.32 -5 33.64 -5 35 C-7.64 35 -10.28 35 -13 35 C-13.33 33.35 -13.66 31.7 -14 30 C-15.32 30 -16.64 30 -18 30 C-18 30.93 -18 31.86 -18 32.81 C-18 34.88 -18 36.94 -18 39 C-23.94 39 -29.88 39 -36 39 C-36 38.34 -36 37.68 -36 37 C-35.01 37 -34.02 37 -33 37 C-31.35 31.72 -29.7 26.44 -28 21 C-27.01 28.42 -27.01 28.42 -26 36 C-24.68 36 -23.36 36 -22 36 C-21.85 28.61 -22.29 21.36 -23 14 C-25.64 14 -28.28 14 -31 14 Z " fill="#5A2E77" transform="translate(280,14)"/>
<path d="M0 0 C0 0.99 0 1.98 0 3 C0.66 3 1.32 3 2 3 C2 2.34 2 1.68 2 1 C2.99 1 3.98 1 5 1 C5 1.99 5 2.98 5 4 C5.6 4.14 6.2 4.29 6.81 4.44 C8.56 4.89 10.29 5.43 12 6 C11.48 12.69 10.9 19.35 10 26 C11.32 26 12.64 26 14 26 C14.14 25.36 14.29 24.72 14.44 24.06 C15 22 15 22 16 21 C17.15 20.86 18.31 20.71 19.5 20.56 C20.65 20.38 21.81 20.19 23 20 C23.33 19.34 23.66 18.68 24 18 C30.27 18.33 36.54 18.66 43 19 C43.99 21.47 43.99 21.47 45 24 C46.49 24.5 46.49 24.5 48 25 C48.2 26.94 48.38 28.87 48.56 30.81 C48.72 32.43 48.72 32.43 48.88 34.08 C49 37 49 37 48 40 C47.01 40 46.02 40 45 40 C45.06 41.2 45.12 42.39 45.19 43.62 C45.19 47.74 44.23 50.48 42 54 C41.01 54.5 41.01 54.5 40 55 C40 56.32 40 57.64 40 59 C40.66 59 41.32 59 42 59 C42.33 57.68 42.66 56.36 43 55 C43.66 55 44.32 55 45 55 C45.5 56.98 45.5 56.98 46 59 C47.11 59.19 47.11 59.19 48.25 59.38 C50.8 59.95 52.73 60.74 55 62 C55 60.68 55 59.36 55 58 C56.65 58.33 58.3 58.66 60 59 C59.84 59.53 59.67 60.06 59.5 60.61 C58.89 63.54 58.9 66.26 58.94 69.25 C58.95 70.33 58.96 71.41 58.96 72.52 C58.98 73.34 58.99 74.16 59 75 C58.34 75 57.68 75 57 75 C57 76.65 57 78.3 57 80 C56.34 80 55.68 80 55 80 C55 80.99 55 81.98 55 83 C54.34 83 53.68 83 53 83 C52.5 84.49 52.5 84.49 52 86 C51.01 86 50.02 86 49 86 C49.33 87.32 49.66 88.64 50 90 C49.01 90 48.02 90 47 90 C47 90.99 47 91.98 47 93 C45.58 94.25 44.15 95.5 42.66 96.66 C40.75 98.15 40.75 98.15 38.31 100.75 C36 103 36 103 33 104 C32.5 105.49 32.5 105.49 32 107 C27.47 109.83 23.01 108.81 18 108 C18 106.68 18 105.36 18 104 C16.51 104.5 16.51 104.5 15 105 C14.67 108.63 14.34 112.26 14 116 C15.65 116.33 17.3 116.66 19 117 C19.1 123.15 19.1 123.15 19 125 C18 126 18 126 15.5 126.12 C13 126 13 126 12 125 C11.96 123 11.96 121 12 119 C11.01 119 10.02 119 9 119 C8.77 119.63 8.54 120.27 8.3 120.92 C7 123 7 123 4.79 123.83 C3.5 124.04 3.5 124.04 2.19 124.25 C1.34 124.4 0.48 124.55 -0.39 124.7 C-2.96 124.99 -5.42 125.06 -8 125 C-8 123.35 -8 121.7 -8 120 C-6.68 120 -5.36 120 -4 120 C-4 119.34 -4 118.68 -4 118 C-6.45 118.11 -6.45 118.11 -9 119 C-10.19 121.5 -10.19 121.5 -11 124 C-13.58 124.25 -16.16 124.47 -18.75 124.69 C-19.84 124.8 -19.84 124.8 -20.96 124.91 C-24.3 125.17 -26.53 125.25 -29.52 123.64 C-31 122 -31 122 -31 120 C-33.31 120 -35.62 120 -38 120 C-38 119.34 -38 118.68 -38 118 C-39.32 117.67 -40.64 117.34 -42 117 C-42 116.34 -42 115.68 -42 115 C-43.98 114.67 -45.96 114.34 -48 114 C-48 113.01 -48 112.02 -48 111 C-49.98 111 -51.96 111 -54 111 C-54.33 110.01 -54.66 109.02 -55 108 C-55.66 107.67 -56.32 107.34 -57 107 C-57 106.34 -57 105.68 -57 105 C-57.66 105 -58.32 105 -59 105 C-62 100.62 -62 100.62 -62 98 C-62.99 97.67 -63.98 97.34 -65 97 C-66.06 93.88 -66.06 93.88 -67 90 C-67.39 88.76 -67.78 87.53 -68.19 86.25 C-69 83 -69 83 -68 80 C-68.39 77.86 -68.39 77.86 -69 76 C-68.04 75.69 -68.04 75.69 -67.06 75.38 C-64.69 74.13 -64.69 74.13 -64.31 71.12 C-64.21 70.09 -64.11 69.06 -64 68 C-63.68 66.66 -63.36 65.33 -63 64 C-65.31 64 -67.62 64 -70 64 C-69.01 61.03 -68.02 58.06 -67 55 C-67.99 54.67 -68.98 54.34 -70 54 C-69.67 53.01 -69.34 52.02 -69 51 C-69.66 51 -70.32 51 -71 51 C-71.03 49.25 -71.05 47.5 -71.06 45.75 C-71.07 44.78 -71.09 43.8 -71.1 42.8 C-71.01 40.34 -70.71 38.34 -70 36 C-69.34 36 -68.68 36 -68 36 C-67.66 34.36 -67.66 34.36 -67.31 32.69 C-66 29 -66 29 -63.69 27.25 C-62.8 26.84 -61.91 26.42 -61 26 C-57.65 24.13 -56.17 23.25 -54 20 C-51.87 19.3 -51.87 19.3 -49.44 18.88 C-46.43 18.52 -46.43 18.52 -44 17 C-41.67 16.96 -39.33 16.96 -37 17 C-37 17.66 -37 18.32 -37 19 C-35.33 18.91 -35.33 18.91 -33.62 18.81 C-31.83 18.91 -31.83 18.91 -30 19 C-29.34 19.99 -28.68 20.98 -28 22 C-27.67 21.34 -27.34 20.68 -27 20 C-26.34 20 -25.68 20 -25 20 C-25 18.02 -25 16.04 -25 14 C-24.01 14 -23.02 14 -22 14 C-22 12.68 -22 11.36 -22 10 C-20.68 10 -19.36 10 -18 10 C-18 8.68 -18 7.36 -18 6 C-17.01 6 -16.02 6 -15 6 C-15 5.34 -15 4.68 -15 4 C-12.36 4 -9.72 4 -7 4 C-7 3.34 -7 2.68 -7 2 C-2.25 0 -2.25 0 0 0 Z " fill="#D77645" transform="translate(256,78)"/>
<path d="M0 0 C1.72 0.42 1.72 0.42 3.46 0.84 C23.12 5.97 41.13 14.84 55.88 28.97 C57.83 30.84 59.84 32.5 61.94 34.19 C84.12 53.59 97.41 85.15 100 114 C102.34 152.9 90.92 186.18 65.38 215.44 C43.23 239.22 12.07 255.25 -20.64 256.48 C-54.39 257.44 -87.12 249.96 -113 227 C-114.45 225.75 -114.45 225.75 -115.92 224.48 C-141.02 202.45 -157.01 171.39 -160 138 C-161.87 104.64 -153.73 73.49 -133 47 C-132.27 46.04 -131.54 45.09 -130.79 44.1 C-126.74 38.88 -126.74 38.88 -125 37 C-124.34 37 -123.68 37 -123 37 C-122.67 36.01 -122.34 35.02 -122 34 C-121.34 34 -120.68 34 -120 34 C-120 33.34 -120 32.68 -120 32 C-88.99 2.09 -41.79 -11.23 0 0 Z M-76.05 16.14 C-77.48 16.77 -78.91 17.37 -80.36 17.95 C-90.58 22.25 -100.67 28.63 -109 36 C-109 36.66 -109 37.32 -109 38 C-109.87 38.39 -109.87 38.39 -110.77 38.79 C-113.16 40.09 -114.82 41.52 -116.75 43.44 C-117.36 44.03 -117.98 44.63 -118.61 45.25 C-120.31 47.02 -120.31 47.02 -120 50 C-120.9 50.34 -120.9 50.34 -121.81 50.69 C-125.45 52.87 -126.69 56.08 -128 60 C-128.66 60 -129.32 60 -130 60 C-136.77 71.79 -142.74 82.71 -146 96 C-146.26 97.01 -146.52 98.02 -146.79 99.06 C-148.8 107.5 -149.44 115.55 -149.34 124.18 C-149.31 126.26 -149.32 128.35 -149.32 130.43 C-149.31 137.84 -148.89 144.82 -147 152 C-146.79 152.81 -146.58 153.62 -146.37 154.45 C-145.73 156.85 -145.06 159.24 -144.38 161.62 C-144.15 162.44 -143.92 163.25 -143.68 164.09 C-143.12 166.06 -142.56 168.03 -142 170 C-141.34 170 -140.68 170 -140 170 C-140 171.32 -140 172.64 -140 174 C-139.34 174 -138.68 174 -138 174 C-137.9 174.85 -137.79 175.69 -137.69 176.56 C-136.68 181.58 -134.83 185.75 -132 190 C-131.34 190 -130.68 190 -130 190 C-130 191.32 -130 192.64 -130 194 C-129.34 194 -128.68 194 -128 194 C-126.67 196.67 -125.33 199.33 -124 202 C-123.34 202 -122.68 202 -122 202 C-121.62 202.87 -121.62 202.87 -121.23 203.76 C-117.31 210.91 -108.33 218.92 -101 222.44 C-100.34 222.62 -99.68 222.81 -99 223 C-99 223.66 -99 224.32 -99 225 C-83.22 234.6 -83.22 234.6 -66 241 C-65.09 241.32 -64.18 241.65 -63.24 241.98 C-51.69 245.61 -39.28 246.28 -27.25 246.31 C-25.75 246.32 -25.75 246.32 -24.22 246.33 C-18.45 246.27 -13.54 245.57 -8 244 C-6.13 243.71 -4.25 243.43 -2.38 243.19 C4.78 242.06 11.27 239.61 18 237 C18 236.34 18 235.68 18 235 C18.55 234.84 19.09 234.68 19.65 234.52 C25.56 232.69 30.7 230.17 36 227 C36 226.34 36 225.68 36 225 C37.14 224.6 37.14 224.6 38.31 224.19 C40.94 223.02 42.06 222.03 44 220 C44.93 219.57 44.93 219.57 45.88 219.12 C48.82 217.57 50.78 215.46 53 213 C53 212.34 53 211.68 53 211 C53.73 210.78 54.47 210.56 55.23 210.34 C58.73 208.65 60.11 206.71 62.38 203.56 C62.76 203.03 63.15 202.5 63.54 201.96 C66.68 197.58 69.59 193.07 72.39 188.47 C74 186 74 186 75.98 183.82 C78.86 179.8 80.09 175.5 81.56 170.81 C81.85 169.92 82.14 169.02 82.44 168.1 C83.31 165.4 84.16 162.7 85 160 C85.28 159.13 85.56 158.27 85.85 157.38 C88.94 147.59 89.16 138.28 89.13 128.11 C89.13 125.94 89.13 123.77 89.14 121.6 C89.14 120.2 89.13 118.8 89.13 117.4 C89.13 115.52 89.13 115.52 89.13 113.61 C88.85 105.96 87.21 99.04 84.44 91.94 C83.17 88.65 82.44 85.51 82 82 C81.34 82 80.68 82 80 82 C79.84 80.72 79.67 79.44 79.5 78.12 C78.33 72.71 75.44 69.42 71.89 65.29 C69.75 62.69 68.39 60.06 67 57 C60.01 45.99 52.01 37.05 41 30 C40.21 29.47 39.42 28.95 38.6 28.41 C35.09 25.89 35.09 25.89 31 25 C31 24.34 31 23.68 31 23 C25.11 19.8 19.09 17.16 12.81 14.81 C12.15 14.56 11.48 14.31 10.8 14.06 C-17.62 3.59 -48.35 3.88 -76.05 16.14 Z " fill="#D36430" transform="translate(280,14)"/>
<path d="M0 0 C2.64 0 5.28 0 8 0 C8.71 7.36 9.15 14.61 9 22 C7.68 22 6.36 22 5 22 C4.34 17.05 3.68 12.1 3 7 C1.35 12.28 -0.3 17.56 -2 23 C-2.99 23 -3.98 23 -5 23 C-5 23.66 -5 24.32 -5 25 C0.94 25 6.88 25 13 25 C13 24.01 13 23.02 13 22 C13 20 13 18 13 16 C14.65 16.33 16.3 16.66 18 17 C18 18.32 18 19.64 18 21 C20.64 21 23.28 21 26 21 C26 19.68 26 18.36 26 17 C25.45 16.81 24.89 16.61 24.32 16.41 C23.23 16.02 23.23 16.02 22.12 15.62 C21.41 15.37 20.69 15.11 19.95 14.85 C18 14 18 14 16 12 C15.65 8.8 15.78 6.58 16.94 3.56 C19.9 1.32 22.08 1.9 25.65 2.35 C28.73 3.2 30.58 3.85 33 6 C33.63 8.91 33.47 11.73 33.31 14.69 C33.29 15.48 33.27 16.28 33.24 17.1 C33.19 19.07 33.1 21.04 33 23 C33.66 23 34.32 23 35 23 C35.25 22.15 35.5 21.31 35.75 20.44 C37.14 16.62 38.91 13.48 41 10 C46.62 10.14 51.24 10.8 55.76 14.32 C58.13 17.53 57.52 21.22 57 25 C60.6 25.41 61.78 25.15 64.81 23 C65.53 22.34 66.26 21.68 67 21 C69.01 22.18 69.01 22.18 71 24 C71.24 26.35 71.24 26.35 70.88 29.06 C70.75 30.03 70.62 31 70.5 31.99 C69.78 36.35 68.96 40.68 68 45 C68.53 44.23 69.06 43.46 69.61 42.66 C70.32 41.66 71.02 40.66 71.75 39.62 C72.45 38.63 73.14 37.63 73.86 36.6 C75.87 34.16 77.09 33.09 80 32 C80.33 32.33 80.66 32.66 81 33 C80.92 34.09 80.84 35.19 80.75 36.31 C80.6 40.11 80.6 40.11 83.31 42.31 C84.2 42.87 85.09 43.43 86 44 C86.99 44.66 87.98 45.32 89 46 C88.34 46 87.68 46 87 46 C87 47.98 87 49.96 87 52 C86.01 52.33 85.02 52.66 84 53 C82.78 55.5 82.78 55.5 82 58 C81.67 58 81.34 58 81 58 C80.67 56.35 80.34 54.7 80 53 C74.06 53.5 74.06 53.5 68 54 C68 53.34 68 52.68 68 52 C67.34 52 66.68 52 66 52 C66 52.99 66 53.98 66 55 C66.64 55.23 67.28 55.45 67.94 55.69 C68.62 56.12 69.3 56.55 70 57 C70.2 58.09 70.2 58.09 70.39 59.21 C71.16 62.74 72.75 65 74.75 68 C86 85.64 90.16 107.92 86.24 128.55 C85.37 132.44 84.24 136.21 83 140 C82.7 140.92 82.4 141.84 82.09 142.79 C77.41 155.56 69.03 168.67 58.25 177.17 C55.42 179.48 54.87 181.52 54 185 C52.35 185 50.7 185 49 185 C48.67 185.99 48.34 186.98 48 188 C49.65 187.67 51.3 187.34 53 187 C57 191.39 57 191.39 58 193 C57.67 193.99 57.34 194.98 57 196 C54.03 196.33 51.06 196.66 48 197 C47.67 198.32 47.34 199.64 47 201 C51.34 200.82 51.34 200.82 55 199 C57.87 198.69 57.87 198.69 61 199 C63.51 201.18 63.94 202.68 64.56 205.94 C63.92 209.46 62.72 210.9 59.87 213.03 C56.64 214.71 53.61 214.81 50 215 C49.01 212.52 49.01 212.52 48 210 C49.32 209.67 50.64 209.34 52 209 C52 209.66 52 210.32 52 211 C54.31 210.01 56.62 209.02 59 208 C59 206.68 59 205.36 59 204 C54.87 204.57 54.87 204.57 51 206 C49.29 205.91 47.58 205.76 45.88 205.56 C44.96 205.46 44.05 205.36 43.12 205.25 C42.42 205.17 41.72 205.09 41 205 C41.02 205.95 41.04 206.9 41.06 207.88 C41 211 41 211 40 213 C40.66 213 41.32 213 42 213 C43.26 215.91 44 217.8 44 221 C41.62 220.75 41.62 220.75 39 220 C37.69 217.94 37.69 217.94 37 216 C34.36 216.33 31.72 216.66 29 217 C29.33 219.64 29.66 222.28 30 225 C29.22 224.79 28.43 224.59 27.62 224.38 C26.76 224.25 25.89 224.13 25 224 C24.34 224.66 23.68 225.32 23 226 C20.87 225.62 20.87 225.62 19 225 C19 225.99 19 226.98 19 228 C19.66 228.33 20.32 228.66 21 229 C15.06 228.67 9.12 228.34 3 228 C1.38 210.83 1.38 210.83 2 205 C4 203 4 203 7.04 202.8 C8.22 202.83 9.41 202.85 10.62 202.88 C11.81 202.89 13 202.91 14.23 202.93 C15.14 202.95 16.06 202.98 17 203 C16.67 201.68 16.34 200.36 16 199 C4.78 199.33 -6.44 199.66 -18 200 C-18 201.32 -18 202.64 -18 204 C-17.01 203.94 -16.02 203.88 -15 203.81 C-10.51 203.79 -7.09 205.24 -3 207 C-2 208 -2 208 -1.94 210.56 C-1.96 211.37 -1.98 212.17 -2 213 C-3.65 212.67 -5.3 212.34 -7 212 C-7 211.01 -7 210.02 -7 209 C-10.3 209 -13.6 209 -17 209 C-17 213.62 -17 218.24 -17 223 C-14.36 223 -11.72 223 -9 223 C-8.67 221.68 -8.34 220.36 -8 219 C-9.65 219 -11.3 219 -13 219 C-13 218.01 -13 217.02 -13 216 C-9.7 216 -6.4 216 -3 216 C-3.61 224.45 -3.61 224.45 -5.24 226.77 C-8.7 229.18 -12.97 228.49 -17 228 C-19.48 226.84 -21.09 225.91 -23 224 C-23.46 217.31 -22.79 210.64 -22 204 C-22.66 204 -23.32 204 -24 204 C-26.58 210.26 -28.94 216.55 -31 223 C-32.32 223 -33.64 223 -35 223 C-34.97 220.95 -34.93 218.9 -34.9 216.85 C-34.79 214.98 -34.79 214.98 -36 214 C-36.04 212 -36.04 210 -36 208 C-35.34 208 -34.68 208 -34 208 C-34 207.01 -34 206.02 -34 205 C-35.65 204.34 -37.3 203.68 -39 203 C-39.27 203.6 -39.54 204.2 -39.81 204.81 C-41 207 -41 207 -42.44 208.31 C-44.8 210.87 -45.72 213.77 -47 217 C-48.32 216.67 -49.64 216.34 -51 216 C-50.6 210.85 -48.69 207.37 -46.06 203.05 C-44.77 200.94 -44.77 200.94 -45 198 C-46.32 197.34 -47.64 196.68 -49 196 C-48.67 195.01 -48.34 194.02 -48 193 C-46.02 193.28 -44.04 193.57 -42.06 193.88 C-40.41 194.12 -40.41 194.12 -38.72 194.37 C-37.82 194.58 -36.93 194.78 -36 195 C-35.67 195.66 -35.34 196.32 -35 197 C-33.35 196.67 -31.7 196.34 -30 196 C-30.33 195.01 -30.66 194.02 -31 193 C-32.67 192.24 -34.34 191.49 -36.05 190.82 C-55.96 182.46 -70.8 164.46 -79 145 C-87.83 121.25 -87.19 97.31 -76.7 74.29 C-72.55 66.25 -67.46 59.09 -61.25 52.52 C-59.79 51.07 -59.79 51.07 -60 49 C-61.3 49.21 -62.6 49.41 -63.94 49.62 C-67.44 49.64 -68.77 49.17 -71.6 47.02 C-75.14 43.31 -77.63 40.28 -79.06 35.31 C-77.51 30.47 -74.39 27.52 -70 25 C-67.36 24.68 -67.36 24.68 -65 25 C-64.34 25.66 -63.68 26.32 -63 27 C-63.38 29.12 -63.38 29.12 -64 31 C-64.76 30.81 -65.53 30.63 -66.31 30.44 C-69.09 29.77 -69.09 29.77 -72 31 C-73.06 33.09 -73.06 33.09 -73 36 C-71.26 38.89 -69.19 41.44 -67 44 C-63.07 43.43 -63.07 43.43 -60 41 C-60.04 40.03 -60.08 39.06 -60.12 38.06 C-60 35 -60 35 -58.12 33.12 C-56 32 -56 32 -54 32 C-54.46 31.18 -54.91 30.36 -55.38 29.52 C-55.96 28.44 -56.53 27.36 -57.12 26.25 C-57.71 25.18 -58.29 24.12 -58.88 23.02 C-60 20 -60 20 -59.18 17.61 C-58.79 17.08 -58.4 16.55 -58 16 C-57.34 16 -56.68 16 -56 16 C-54.56 18.01 -54.56 18.01 -53 20.69 C-52.48 21.56 -51.97 22.43 -51.44 23.32 C-50.09 25.84 -49 28.33 -48 31 C-46.61 30.54 -46.61 30.54 -45.19 30.06 C-43.12 29.38 -41.06 28.69 -39 28 C-39 27.34 -39 26.68 -39 26 C-38.34 26 -37.68 26 -37 26 C-37.54 24.43 -37.54 24.43 -38.09 22.82 C-38.56 21.45 -39.03 20.07 -39.5 18.69 C-39.74 18 -39.98 17.31 -40.22 16.6 C-41.23 13.61 -42 11.17 -42 8 C-40.06 7.33 -38.13 6.66 -36.19 6 C-35.11 5.63 -34.03 5.26 -32.92 4.88 C-30 4 -30 4 -27 4 C-27 5.32 -27 6.64 -27 8 C-29.97 8.66 -32.94 9.32 -36 10 C-35.5 12.48 -35.5 12.48 -35 15 C-34.29 14.84 -33.58 14.69 -32.85 14.53 C-31.93 14.33 -31.01 14.14 -30.06 13.94 C-29.15 13.74 -28.23 13.54 -27.29 13.34 C-26.53 13.23 -25.78 13.12 -25 13 C-24 14 -24 14 -23.94 17.56 C-23.96 18.7 -23.98 19.83 -24 21 C-23.34 20.67 -22.68 20.34 -22 20 C-22 18.68 -22 17.36 -22 16 C-21.01 16 -20.02 16 -19 16 C-19 11.05 -19 6.1 -19 1 C-16.36 1 -13.72 1 -11 1 C-9.02 5.62 -7.04 10.24 -5 15 C-4.67 15 -4.34 15 -4 15 C-3.8 14.08 -3.59 13.17 -3.38 12.23 C-3.11 11.04 -2.84 9.85 -2.56 8.62 C-2.3 7.44 -2.03 6.26 -1.75 5.04 C-1 2 -1 2 0 0 Z M-48 45 C-48 45.66 -48 46.32 -48 47 C-48.58 47.27 -49.16 47.53 -49.76 47.8 C-64.72 55.79 -73.93 73.17 -79.04 88.64 C-84.75 108.53 -82.95 129.39 -74 148 C-73.47 149.14 -73.47 149.14 -72.93 150.3 C-67.33 161.98 -58.32 172.19 -48 180 C-47.34 180 -46.68 180 -46 180 C-46 180.66 -46 181.32 -46 182 C-25.37 193.84 -1.76 199.34 21.81 193.31 C43.67 186.85 63.13 172.72 74.15 152.51 C83.8 133.85 87.69 112.61 82 92 C79.65 84.72 77.16 77.46 73 71 C72.36 69.96 72.36 69.96 71.71 68.89 C65.05 58.51 56.74 50.5 47 43 C46.33 42.46 45.66 41.92 44.96 41.37 C42.83 39.88 40.81 38.99 38.38 38.06 C35.73 37.05 33.11 36.05 30.51 34.93 C5.44 24.17 -26.09 29.17 -48 45 Z " fill="#F1D8DB" transform="translate(249,28)"/>
<path d="M0 0 C4.29 0 8.58 0 13 0 C13 0.66 13 1.32 13 2 C15.97 2.99 18.94 3.98 22 5 C22.97 9.3 22.89 12.76 22.26 17.05 C21.71 21.19 21.77 25 23 29 C22.01 29 21.02 29 20 29 C20.99 30.49 20.99 30.49 22 32 C22.66 32 23.32 32 24 32 C24.33 36.67 23.71 39.17 21 43 C21.66 43 22.32 43 23 43 C23 43.99 23 44.98 23 46 C24.32 45.34 25.64 44.68 27 44 C27 44.66 27 45.32 27 46 C27.66 46 28.32 46 29 46 C28.67 47.65 28.34 49.3 28 51 C28.66 51 29.32 51 30 51 C30 53.97 30 56.94 30 60 C28.68 60.33 27.36 60.66 26 61 C25.86 62.09 25.71 63.19 25.56 64.31 C24.84 66.91 24.41 67.76 22.04 69.13 C18.03 70.5 14.26 71.41 10 71 C10 69.35 10 67.7 10 66 C11.32 66 12.64 66 14 66 C14 65.34 14 64.68 14 64 C11.55 64.11 11.55 64.11 9 65 C7.81 67.5 7.81 67.5 7 70 C4.42 70.25 1.84 70.47 -0.75 70.69 C-1.84 70.8 -1.84 70.8 -2.96 70.91 C-6.3 71.17 -8.53 71.25 -11.52 69.64 C-13 68 -13 68 -13 66 C-15.31 66 -17.62 66 -20 66 C-20 65.34 -20 64.68 -20 64 C-21.32 63.67 -22.64 63.34 -24 63 C-24 62.34 -24 61.68 -24 61 C-25.98 60.67 -27.96 60.34 -30 60 C-30 59.01 -30 58.02 -30 57 C-31.98 57 -33.96 57 -36 57 C-36.5 55.51 -36.5 55.51 -37 54 C-37.66 53.67 -38.32 53.34 -39 53 C-39 52.34 -39 51.68 -39 51 C-39.66 51 -40.32 51 -41 51 C-44 46.62 -44 46.62 -44 44 C-44.99 43.67 -45.98 43.34 -47 43 C-48.06 39.88 -48.06 39.88 -49 36 C-49.39 34.76 -49.78 33.53 -50.19 32.25 C-51 29 -51 29 -50 26 C-50.39 23.86 -50.39 23.86 -51 22 C-49.68 21.34 -48.36 20.68 -47 20 C-47 18.68 -47 17.36 -47 16 C-44.29 14.65 -41.99 14.93 -39 15 C-39 14.34 -39 13.68 -39 13 C-34.82 11.41 -31.47 10.79 -27 11 C-27 10.34 -27 9.68 -27 9 C-23.37 8.67 -19.74 8.34 -16 8 C-16 7.34 -16 6.68 -16 6 C-14.68 6 -13.36 6 -12 6 C-12 5.34 -12 4.68 -12 4 C-6.06 3.5 -6.06 3.5 0 3 C0 2.01 0 1.02 0 0 Z " fill="#F4F3F1" transform="translate(238,132)"/>
<path d="M0 0 C2.64 0 5.28 0 8 0 C8.71 7.36 9.15 14.61 9 22 C7.68 22 6.36 22 5 22 C4.34 17.05 3.68 12.1 3 7 C1.35 12.28 -0.3 17.56 -2 23 C-2.99 23 -3.98 23 -5 23 C-5 23.66 -5 24.32 -5 25 C0.94 25 6.88 25 13 25 C13 24.01 13 23.02 13 22 C13 20 13 18 13 16 C14.65 16.33 16.3 16.66 18 17 C18 18.32 18 19.64 18 21 C20.64 21 23.28 21 26 21 C26 19.68 26 18.36 26 17 C25.45 16.81 24.89 16.61 24.32 16.41 C23.23 16.02 23.23 16.02 22.12 15.62 C21.41 15.37 20.69 15.11 19.95 14.85 C18 14 18 14 16 12 C15.65 8.8 15.78 6.58 16.94 3.56 C19.9 1.32 22.08 1.9 25.65 2.35 C28.73 3.2 30.58 3.85 33 6 C33.63 8.91 33.47 11.73 33.31 14.69 C33.29 15.48 33.27 16.28 33.24 17.1 C33.19 19.07 33.1 21.04 33 23 C33.66 23 34.32 23 35 23 C35.25 22.15 35.5 21.31 35.75 20.44 C37.14 16.62 38.91 13.48 41 10 C46.62 10.14 51.24 10.8 55.76 14.32 C58.13 17.53 57.52 21.22 57 25 C60.6 25.41 61.78 25.15 64.81 23 C65.53 22.34 66.26 21.68 67 21 C69.01 22.18 69.01 22.18 71 24 C71.24 26.35 71.24 26.35 70.88 29.06 C70.75 30.03 70.62 31 70.5 31.99 C69.78 36.35 68.96 40.68 68 45 C68.53 44.23 69.06 43.46 69.61 42.66 C70.32 41.66 71.02 40.66 71.75 39.62 C72.45 38.63 73.14 37.63 73.86 36.6 C75.87 34.16 77.09 33.09 80 32 C80.33 32.33 80.66 32.66 81 33 C80.92 34.09 80.84 35.19 80.75 36.31 C80.6 40.11 80.6 40.11 83.31 42.31 C84.2 42.87 85.09 43.43 86 44 C86.99 44.66 87.98 45.32 89 46 C88.34 46 87.68 46 87 46 C87 47.98 87 49.96 87 52 C86.01 52.33 85.02 52.66 84 53 C82.78 55.5 82.78 55.5 82 58 C81.67 58 81.34 58 81 58 C80.67 56.35 80.34 54.7 80 53 C74.06 53.5 74.06 53.5 68 54 C68 53.34 68 52.68 68 52 C67.34 52 66.68 52 66 52 C66 52.99 66 53.98 66 55 C67.32 55.66 68.64 56.32 70 57 C69.01 57.99 69.01 57.99 68 59 C67.4 58.22 66.8 57.43 66.19 56.62 C64.09 53.85 64.09 53.85 61 52 C61 51.34 61 50.68 61 50 C60.44 49.75 59.89 49.5 59.31 49.25 C55.57 47.23 52.53 44.49 49.41 41.62 C45.61 38.47 41.41 36.72 36.88 34.88 C36.1 34.54 35.32 34.21 34.52 33.86 C23.47 29.27 13.08 27.46 1.12 27.56 C-0.11 27.57 -1.34 27.58 -2.61 27.58 C-11.42 27.74 -18.81 28.6 -27 32 C-28.04 32.39 -29.07 32.77 -30.14 33.17 C-40.96 37.37 -49.61 43.02 -58 51 C-58.59 50.66 -59.19 50.32 -59.8 49.97 C-62.1 48.72 -62.1 48.72 -65.19 49.5 C-70.69 48.78 -72.78 45.85 -76.21 41.66 C-78 39 -78 39 -79.06 35.31 C-77.51 30.47 -74.39 27.52 -70 25 C-67.36 24.68 -67.36 24.68 -65 25 C-64.34 25.66 -63.68 26.32 -63 27 C-63.38 29.12 -63.38 29.12 -64 31 C-64.76 30.81 -65.53 30.63 -66.31 30.44 C-69.09 29.77 -69.09 29.77 -72 31 C-73.06 33.09 -73.06 33.09 -73 36 C-71.26 38.89 -69.19 41.44 -67 44 C-63.07 43.43 -63.07 43.43 -60 41 C-60.04 40.03 -60.08 39.06 -60.12 38.06 C-60 35 -60 35 -58.12 33.12 C-56 32 -56 32 -54 32 C-54.46 31.18 -54.91 30.36 -55.38 29.52 C-55.96 28.44 -56.53 27.36 -57.12 26.25 C-57.71 25.18 -58.29 24.12 -58.88 23.02 C-60 20 -60 20 -59.18 17.61 C-58.79 17.08 -58.4 16.55 -58 16 C-57.34 16 -56.68 16 -56 16 C-54.56 18.01 -54.56 18.01 -53 20.69 C-52.48 21.56 -51.97 22.43 -51.44 23.32 C-50.09 25.84 -49 28.33 -48 31 C-47.07 30.69 -46.14 30.38 -45.19 30.06 C-43.12 29.38 -41.06 28.69 -39 28 C-39 27.34 -39 26.68 -39 26 C-38.34 26 -37.68 26 -37 26 C-37.54 24.43 -37.54 24.43 -38.09 22.82 C-38.56 21.45 -39.03 20.07 -39.5 18.69 C-39.74 18 -39.98 17.31 -40.22 16.6 C-41.23 13.61 -42 11.17 -42 8 C-40.06 7.33 -38.13 6.66 -36.19 6 C-35.11 5.63 -34.03 5.26 -32.92 4.88 C-30 4 -30 4 -27 4 C-27 5.32 -27 6.64 -27 8 C-29.97 8.66 -32.94 9.32 -36 10 C-35.5 12.48 -35.5 12.48 -35 15 C-34.29 14.84 -33.58 14.69 -32.85 14.53 C-31.93 14.33 -31.01 14.14 -30.06 13.94 C-29.15 13.74 -28.23 13.54 -27.29 13.34 C-26.53 13.23 -25.78 13.12 -25 13 C-24 14 -24 14 -23.94 17.56 C-23.96 18.7 -23.98 19.83 -24 21 C-23.34 20.67 -22.68 20.34 -22 20 C-22 18.68 -22 17.36 -22 16 C-21.01 16 -20.02 16 -19 16 C-19 11.05 -19 6.1 -19 1 C-16.36 1 -13.72 1 -11 1 C-9.02 5.62 -7.04 10.24 -5 15 C-4.67 15 -4.34 15 -4 15 C-3.8 14.08 -3.59 13.17 -3.38 12.23 C-3.11 11.04 -2.84 9.85 -2.56 8.62 C-2.3 7.44 -2.03 6.26 -1.75 5.04 C-1 2 -1 2 0 0 Z " fill="#9982AC" transform="translate(249,28)"/>
<path d="M0 0 C2.48 0.5 2.48 0.5 5 1 C4.67 1.99 4.34 2.98 4 4 C6.31 4 8.62 4 11 4 C11 3.34 11 2.68 11 2 C11.66 2 12.32 2 13 2 C13.5 7.94 13.5 7.94 14 14 C13.34 14 12.68 14 12 14 C12 15.65 12 17.3 12 19 C11.34 19 10.68 19 10 19 C10 19.99 10 20.98 10 22 C9.34 22 8.68 22 8 22 C7.5 23.49 7.5 23.49 7 25 C6.01 25 5.02 25 4 25 C4.5 26.98 4.5 26.98 5 29 C4.01 29 3.02 29 2 29 C2 29.99 2 30.98 2 32 C0.58 33.25 -0.85 34.5 -2.34 35.66 C-4.25 37.15 -4.25 37.15 -6.69 39.75 C-9 42 -9 42 -12 43 C-12.33 43.99 -12.66 44.98 -13 46 C-21.13 46.47 -21.13 46.47 -24.56 44.62 C-26 43 -26 43 -26 41 C-26.61 40.79 -27.23 40.58 -27.86 40.37 C-30.88 38.43 -31.18 36.46 -32.19 33.06 C-32.51 32 -32.83 30.94 -33.17 29.85 C-33.44 28.91 -33.72 27.97 -34 27 C-34.33 26.01 -34.66 25.02 -35 24 C-34.44 21.3 -34.44 21.3 -33.56 18.31 C-33.28 17.32 -32.99 16.32 -32.69 15.3 C-32.46 14.54 -32.24 13.78 -32 13 C-31.34 13 -30.68 13 -30 13 C-30 12.34 -30 11.68 -30 11 C-28.02 10.67 -26.04 10.34 -24 10 C-24 9.01 -24 8.02 -24 7 C-20.37 4.67 -17.23 4.84 -13 5 C-13 4.01 -13 3.02 -13 2 C-8.71 2 -4.42 2 0 2 C0 1.34 0 0.68 0 0 Z " fill="#F4F3F1" transform="translate(301,139)"/>
<path d="M0 0 C0 0.66 0 1.32 0 2 C0.58 2.12 1.15 2.25 1.75 2.38 C4.19 3.05 5.92 3.54 8 5 C8.64 7.75 8.64 7.75 8.81 11 C8.91 12.61 8.91 12.61 9.02 14.25 C9 17 9 17 8 19 C6.68 19 5.36 19 4 19 C3.67 21.64 3.34 24.28 3 27 C1.35 27.33 -0.3 27.66 -2 28 C-1.5 29.98 -1.5 29.98 -1 32 C-1.66 32 -2.32 32 -3 32 C-3 33.65 -3 35.3 -3 37 C-3.66 37 -4.32 37 -5 37 C-5 37.66 -5 38.32 -5 39 C-9.21 43.09 -13.47 44.35 -19.25 44.38 C-22.6 44.26 -25.82 44.12 -29 43 C-29.33 42.34 -29.66 41.68 -30 41 C-31.21 40.47 -31.21 40.47 -32.44 39.94 C-35.73 37.45 -36.28 35.61 -36.98 31.62 C-37.01 26.72 -35.24 22.31 -33 18 C-32.46 17.46 -31.91 16.92 -31.36 16.37 C-29.65 14.97 -29.65 14.97 -30 12 C-29.34 12 -28.68 12 -28 12 C-27.94 11.4 -27.88 10.8 -27.81 10.19 C-26.66 7.08 -24.93 6.4 -22 5 C-21.01 5 -20.02 5 -19 5 C-19 4.34 -19 3.68 -19 3 C-17.35 3 -15.7 3 -14 3 C-14 2.34 -14 1.68 -14 1 C-9.33 -0.21 -4.79 -0.09 0 0 Z " fill="#F4F3F1" transform="translate(296,98)"/>
<path d="M0 0 C0.5 0.99 0.5 0.99 1 2 C0.67 2.99 0.34 3.98 0 5 C-1.65 5 -3.3 5 -5 5 C-5.33 5.99 -5.66 6.98 -6 8 C-4.35 7.67 -2.7 7.34 -1 7 C3 11.39 3 11.39 4 13 C3.67 13.99 3.34 14.98 3 16 C0.03 16.33 -2.94 16.66 -6 17 C-6.33 18.32 -6.66 19.64 -7 21 C-2.66 20.82 -2.66 20.82 1 19 C3.88 18.69 3.88 18.69 7 19 C9.51 21.18 9.94 22.68 10.56 25.94 C9.92 29.46 8.72 30.9 5.87 33.03 C2.64 34.71 -0.39 34.81 -4 35 C-4.66 33.35 -5.32 31.7 -6 30 C-4.68 29.67 -3.36 29.34 -2 29 C-2 29.66 -2 30.32 -2 31 C0.31 30.01 2.62 29.02 5 28 C5 26.68 5 25.36 5 24 C0.87 24.57 0.87 24.57 -3 26 C-4.71 25.91 -6.42 25.76 -8.12 25.56 C-9.04 25.46 -9.95 25.36 -10.88 25.25 C-11.58 25.17 -12.28 25.09 -13 25 C-12.98 25.95 -12.96 26.9 -12.94 27.88 C-13 31 -13 31 -14 33 C-13.34 33 -12.68 33 -12 33 C-10.74 35.91 -10 37.8 -10 41 C-12.38 40.75 -12.38 40.75 -15 40 C-16.31 37.94 -16.31 37.94 -17 36 C-19.64 36.33 -22.28 36.66 -25 37 C-24.67 39.64 -24.34 42.28 -24 45 C-24.78 44.79 -25.57 44.59 -26.38 44.38 C-27.24 44.25 -28.11 44.13 -29 44 C-29.66 44.66 -30.32 45.32 -31 46 C-33.12 45.62 -33.12 45.62 -35 45 C-35 45.99 -35 46.98 -35 48 C-34.34 48.33 -33.68 48.66 -33 49 C-38.94 48.67 -44.88 48.34 -51 48 C-52.62 30.83 -52.62 30.83 -52 25 C-50 23 -50 23 -46.96 22.8 C-45.19 22.84 -45.19 22.84 -43.38 22.88 C-41.59 22.9 -41.59 22.9 -39.77 22.93 C-38.86 22.95 -37.94 22.98 -37 23 C-37.66 21.02 -38.32 19.04 -39 17 C-38.11 16.8 -37.23 16.61 -36.32 16.41 C-28.85 14.6 -21.96 12.34 -15 9.06 C-14.31 8.74 -13.61 8.42 -12.9 8.08 C-8.23 5.81 -4.16 3.11 0 0 Z " fill="#613D7C" transform="translate(303,208)"/>
<path d="M0 0 C1.13 0.02 2.27 0.04 3.44 0.06 C3.44 0.72 3.44 1.38 3.44 2.06 C4.1 2.06 4.76 2.06 5.44 2.06 C5.44 3.05 5.44 4.04 5.44 5.06 C6.4 5.28 6.4 5.28 7.38 5.5 C9.44 6.06 9.44 6.06 10.44 7.06 C10.43 9.77 10.34 12.43 10.19 15.12 C10.12 16.29 10.12 16.29 10.05 17.47 C9.68 22.83 8.82 27.2 6.44 32.06 C5.78 32.06 5.12 32.06 4.44 32.06 C4.35 32.81 4.27 33.55 4.19 34.31 C3.26 37.71 2.27 38.99 -0.56 41.06 C-3.81 41.31 -3.81 41.31 -6.56 41.06 C-6.56 41.72 -6.56 42.38 -6.56 43.06 C-8.54 43.06 -10.52 43.06 -12.56 43.06 C-12.56 43.72 -12.56 44.38 -12.56 45.06 C-20.31 46.19 -20.31 46.19 -22.56 45.06 C-22.56 44.4 -22.56 43.74 -22.56 43.06 C-23.22 43.06 -23.88 43.06 -24.56 43.06 C-24.56 42.07 -24.56 41.08 -24.56 40.06 C-25.22 40.06 -25.88 40.06 -26.56 40.06 C-26.56 39.4 -26.56 38.74 -26.56 38.06 C-27.55 37.73 -28.54 37.4 -29.56 37.06 C-29.23 36.07 -28.9 35.08 -28.56 34.06 C-29.22 34.06 -29.88 34.06 -30.56 34.06 C-30.59 32.31 -30.61 30.56 -30.62 28.81 C-30.64 27.84 -30.65 26.86 -30.66 25.86 C-30.57 23.4 -30.27 21.4 -29.56 19.06 C-28.9 19.06 -28.24 19.06 -27.56 19.06 C-27.22 17.42 -27.22 17.42 -26.88 15.75 C-25.56 12.06 -25.56 12.06 -23.25 10.31 C-21.92 9.69 -21.92 9.69 -20.56 9.06 C-17.21 7.19 -15.73 6.31 -13.56 3.06 C-11.43 2.37 -11.43 2.37 -9 1.94 C-5.52 1.3 -3.49 0.06 0 0 Z " fill="#F4F4F3" transform="translate(215.5625,94.9375)"/>
<path d="M0 0 C0 0.99 0 1.98 0 3 C0.66 3 1.32 3 2 3 C2 2.34 2 1.68 2 1 C2.99 1 3.98 1 5 1 C5 1.99 5 2.98 5 4 C5.6 4.14 6.2 4.29 6.81 4.44 C8.56 4.89 10.29 5.43 12 6 C11.89 7.9 11.76 9.79 11.62 11.69 C11.56 12.74 11.49 13.8 11.41 14.89 C11.01 17.91 10.26 20.24 9 23 C8.01 23 7.02 23 6 23 C6.05 24.29 6.05 24.29 6.11 25.6 C6.38 37.28 6.38 37.28 3 43 C2.01 43.5 2.01 43.5 1 44 C0.67 44.99 0.34 45.98 0 47 C-5.18 49.69 -10.52 51.63 -16.44 50.56 C-17.21 50.28 -17.21 50.28 -18 50 C-18 49.34 -18 48.68 -18 48 C-18.99 48 -19.98 48 -21 48 C-21 47.34 -21 46.68 -21 46 C-22.32 46 -23.64 46 -25 46 C-28.63 34.48 -28.63 34.48 -27 29 C-26.01 29 -25.02 29 -24 29 C-24.39 27.95 -24.78 26.9 -25.19 25.81 C-26 22 -26 22 -24.75 19.06 C-23.88 18.04 -23.88 18.04 -23 17 C-22.34 17 -21.68 17 -21 17 C-20.67 15.02 -20.34 13.04 -20 11 C-19.67 11.66 -19.34 12.32 -19 13 C-18.34 13 -17.68 13 -17 13 C-16.67 11.35 -16.34 9.7 -16 8 C-15.01 8 -14.02 8 -13 8 C-12.67 6.68 -12.34 5.36 -12 4 C-10.35 4 -8.7 4 -7 4 C-7 3.34 -7 2.68 -7 2 C-2.25 0 -2.25 0 0 0 Z " fill="#F5F1EE" transform="translate(256,78)"/>
<path d="M0 0 C0.33 1.32 0.66 2.64 1 4 C4.6 4.41 5.78 4.15 8.81 2 C9.9 1.01 9.9 1.01 11 0 C13.01 1.18 13.01 1.18 15 3 C15.24 5.35 15.24 5.35 14.88 8.06 C14.69 9.51 14.69 9.51 14.5 10.99 C13.78 15.35 12.96 19.68 12 24 C12.53 23.23 13.06 22.46 13.61 21.66 C14.67 20.16 14.67 20.16 15.75 18.62 C16.45 17.63 17.14 16.63 17.86 15.6 C19.87 13.16 21.09 12.09 24 11 C24.5 11.5 24.5 11.5 25 12 C24.92 13.09 24.83 14.19 24.75 15.31 C24.6 19.11 24.6 19.11 27.31 21.31 C28.2 21.87 29.09 22.43 30 23 C30.99 23.66 31.98 24.32 33 25 C32.34 25 31.68 25 31 25 C31 26.98 31 28.96 31 31 C30.01 31.33 29.02 31.66 28 32 C26.78 34.5 26.78 34.5 26 37 C25.67 37 25.34 37 25 37 C24.67 35.35 24.34 33.7 24 32 C18.06 32.5 18.06 32.5 12 33 C12 32.34 12 31.68 12 31 C11.34 31 10.68 31 10 31 C10 31.99 10 32.98 10 34 C11.32 34.66 12.64 35.32 14 36 C13.34 36.66 12.68 37.32 12 38 C11.4 37.22 10.8 36.43 10.19 35.62 C8.09 32.85 8.09 32.85 5 31 C5 30.34 5 29.68 5 29 C4.44 28.75 3.89 28.5 3.31 28.25 C-0.42 26.23 -3.46 23.5 -6.56 20.62 C-11.09 16.79 -16.67 14.51 -22 12 C-21.67 11.01 -21.34 10.02 -21 9 C-19.8 9.49 -18.61 9.99 -17.38 10.5 C-12.61 12.29 -8.89 12.63 -4 11 C-3.9 10.3 -3.79 9.6 -3.69 8.88 C-2.91 5.61 -1.58 2.95 0 0 Z " fill="#5C387A" transform="translate(305,49)"/>
<path d="M0 0 C0 1.32 0 2.64 0 4 C-2.97 4.66 -5.94 5.32 -9 6 C-8.5 8.48 -8.5 8.48 -8 11 C-4.7 10.34 -1.4 9.68 2 9 C2.5 10.98 2.5 10.98 3 13 C0.03 13.66 -2.94 14.32 -6 15 C-6 16.98 -6 18.96 -6 21 C-5.39 20.78 -4.77 20.57 -4.14 20.34 C-3.33 20.07 -2.52 19.79 -1.69 19.5 C-0.89 19.22 -0.09 18.94 0.74 18.66 C3 18 3 18 6 18 C6 19.32 6 20.64 6 22 C5.01 22.66 4.02 23.32 3 24 C2.5 25.48 2.5 25.48 2 27 C-0.45 28.2 -2.84 29.25 -5.38 30.25 C-15.39 34.42 -23.96 39.67 -32 47 C-32.33 46.34 -32.66 45.68 -33 45 C-34.3 45.21 -35.6 45.41 -36.94 45.62 C-40.44 45.64 -41.77 45.17 -44.6 43.02 C-48.14 39.31 -50.63 36.28 -52.06 31.31 C-50.51 26.47 -47.39 23.52 -43 21 C-40.36 20.68 -40.36 20.68 -38 21 C-37.34 21.66 -36.68 22.32 -36 23 C-36.38 25.12 -36.38 25.12 -37 27 C-37.76 26.81 -38.53 26.63 -39.31 26.44 C-42.09 25.77 -42.09 25.77 -45 27 C-46.06 29.09 -46.06 29.09 -46 32 C-44.26 34.89 -42.19 37.44 -40 40 C-36.07 39.43 -36.07 39.43 -33 37 C-33.04 36.03 -33.08 35.06 -33.12 34.06 C-33 31 -33 31 -31.12 29.12 C-29 28 -29 28 -27 28 C-27.46 27.18 -27.91 26.36 -28.38 25.52 C-28.96 24.44 -29.53 23.36 -30.12 22.25 C-30.71 21.18 -31.29 20.12 -31.88 19.02 C-33 16 -33 16 -32.18 13.61 C-31.79 13.08 -31.4 12.55 -31 12 C-30.34 12 -29.68 12 -29 12 C-27.56 14.01 -27.56 14.01 -26 16.69 C-25.48 17.56 -24.97 18.43 -24.44 19.32 C-23.09 21.84 -22 24.33 -21 27 C-20.07 26.69 -19.14 26.38 -18.19 26.06 C-16.12 25.38 -14.06 24.69 -12 24 C-12 23.34 -12 22.68 -12 22 C-11.34 22 -10.68 22 -10 22 C-10.54 20.43 -10.54 20.43 -11.09 18.82 C-11.56 17.45 -12.03 16.07 -12.5 14.69 C-12.74 14 -12.98 13.31 -13.22 12.6 C-14.23 9.61 -15 7.17 -15 4 C-13.06 3.33 -11.13 2.66 -9.19 2 C-8.11 1.63 -7.03 1.26 -5.92 0.88 C-3 0 -3 0 0 0 Z " fill="#5C3F77" transform="translate(222,32)"/>
<path d="M0 0 C1.98 0.28 3.96 0.57 5.94 0.88 C7.59 1.12 7.59 1.12 9.28 1.37 C10.18 1.58 11.07 1.78 12 2 C12.33 2.66 12.66 3.32 13 4 C14.65 3.67 16.3 3.34 18 3 C18 2.01 18 1.02 18 0 C18.62 0.2 19.23 0.41 19.87 0.62 C20.72 0.89 21.56 1.16 22.44 1.44 C23.26 1.7 24.08 1.97 24.93 2.25 C32.32 4.06 39.99 4.22 47.56 4.56 C48.48 4.61 49.39 4.65 50.33 4.69 C52.55 4.8 54.78 4.9 57 5 C57 5.33 57 5.66 57 6 C47.99 6.63 39.04 7.17 30 7 C30 8.32 30 9.64 30 11 C30.99 10.94 31.98 10.88 33 10.81 C37.49 10.79 40.91 12.24 45 14 C46 15 46 15 46.06 17.56 C46.04 18.37 46.02 19.17 46 20 C44.35 19.67 42.7 19.34 41 19 C41 18.01 41 17.02 41 16 C37.7 16 34.4 16 31 16 C31 20.62 31 25.24 31 30 C33.64 30 36.28 30 39 30 C39.33 28.68 39.66 27.36 40 26 C38.35 26 36.7 26 35 26 C35 25.01 35 24.02 35 23 C38.3 23 41.6 23 45 23 C44.39 31.45 44.39 31.45 42.76 33.77 C39.3 36.18 35.03 35.49 31 35 C28.52 33.84 26.91 32.91 25 31 C24.54 24.31 25.21 17.64 26 11 C25.34 11 24.68 11 24 11 C21.42 17.26 19.06 23.55 17 30 C15.68 30 14.36 30 13 30 C13.03 27.95 13.07 25.9 13.1 23.85 C13.21 21.98 13.21 21.98 12 21 C11.96 19 11.96 17 12 15 C12.66 15 13.32 15 14 15 C14 14.01 14 13.02 14 12 C11.53 11.01 11.53 11.01 9 10 C8.73 10.6 8.46 11.2 8.19 11.81 C7 14 7 14 5.56 15.31 C3.2 17.87 2.28 20.77 1 24 C-0.32 23.67 -1.64 23.34 -3 23 C-2.6 17.85 -0.69 14.37 1.94 10.05 C3.23 7.94 3.23 7.94 3 5 C1.68 4.34 0.36 3.68 -1 3 C-0.67 2.01 -0.34 1.02 0 0 Z " fill="#5E3F79" transform="translate(201,221)"/>
<path d="M0 0 C-0.81 3.44 -0.81 3.44 -2 7 C-2.99 7.33 -3.98 7.66 -5 8 C-3.68 14.6 -2.36 21.2 -1 28 C-4 30 -4 30 -6.19 29.62 C-7.08 29.32 -7.08 29.32 -8 29 C-8 29.99 -8 30.98 -8 32 C-7.34 32.33 -6.68 32.66 -6 33 C-11.94 32.67 -17.88 32.34 -24 32 C-25.62 14.83 -25.62 14.83 -25 9 C-23 7 -23 7 -19.96 6.8 C-18.19 6.84 -18.19 6.84 -16.38 6.88 C-14.59 6.9 -14.59 6.9 -12.77 6.93 C-11.86 6.95 -10.94 6.98 -10 7 C-10.66 5.02 -11.32 3.04 -12 1 C-7.95 0.02 -4.16 -0.08 0 0 Z " fill="#5F3F7C" transform="translate(276,224)"/>
<path d="M0 0 C2.64 0 5.28 0 8 0 C8.71 7.36 9.15 14.61 9 22 C7.68 22 6.36 22 5 22 C4.34 17.05 3.68 12.1 3 7 C1.35 12.28 -0.3 17.56 -2 23 C-3.32 23 -4.64 23 -6 23 C-6.98 21.06 -7.96 19.13 -8.94 17.19 C-9.48 16.11 -10.03 15.03 -10.59 13.92 C-12 11 -12 11 -13 8 C-13 12.95 -13 17.9 -13 23 C-14.32 23 -15.64 23 -17 23 C-18 15.64 -18.1 8.43 -18 1 C-15.69 1 -13.38 1 -11 1 C-9.02 5.62 -7.04 10.24 -5 15 C-4.67 15 -4.34 15 -4 15 C-3.8 14.08 -3.59 13.17 -3.38 12.23 C-3.11 11.04 -2.84 9.85 -2.56 8.62 C-2.3 7.44 -2.03 6.26 -1.75 5.04 C-1 2 -1 2 0 0 Z " fill="#ECDFF4" transform="translate(249,28)"/>
<path d="M0 0 C1.13 0.02 2.27 0.04 3.44 0.06 C3.44 0.72 3.44 1.38 3.44 2.06 C4.1 2.06 4.76 2.06 5.44 2.06 C5.44 3.05 5.44 4.04 5.44 5.06 C6.4 5.28 6.4 5.28 7.38 5.5 C9.44 6.06 9.44 6.06 10.44 7.06 C10.43 9.77 10.34 12.43 10.19 15.12 C10.12 16.29 10.12 16.29 10.05 17.47 C9.68 22.83 8.82 27.2 6.44 32.06 C5.78 32.06 5.12 32.06 4.44 32.06 C4.35 32.81 4.27 33.55 4.19 34.31 C3.26 37.71 2.27 38.99 -0.56 41.06 C-3.81 41.31 -3.81 41.31 -6.56 41.06 C-6.56 41.72 -6.56 42.38 -6.56 43.06 C-8.54 43.06 -10.52 43.06 -12.56 43.06 C-12.56 43.72 -12.56 44.38 -12.56 45.06 C-20.31 46.19 -20.31 46.19 -22.56 45.06 C-22.56 44.4 -22.56 43.74 -22.56 43.06 C-23.22 43.06 -23.88 43.06 -24.56 43.06 C-24.56 42.07 -24.56 41.08 -24.56 40.06 C-25.22 40.06 -25.88 40.06 -26.56 40.06 C-26.56 39.4 -26.56 38.74 -26.56 38.06 C-27.55 37.73 -28.54 37.4 -29.56 37.06 C-29.23 36.07 -28.9 35.08 -28.56 34.06 C-29.22 34.06 -29.88 34.06 -30.56 34.06 C-30.59 32.31 -30.61 30.56 -30.62 28.81 C-30.64 27.84 -30.65 26.86 -30.66 25.86 C-30.57 23.4 -30.27 21.4 -29.56 19.06 C-28.9 19.06 -28.24 19.06 -27.56 19.06 C-27.89 21.04 -28.22 23.02 -28.56 25.06 C-27.9 25.06 -27.24 25.06 -26.56 25.06 C-26.6 27.05 -26.63 29.03 -26.66 31.02 C-26.48 34.8 -25.24 36.6 -22.56 39.06 C-20.56 41.06 -20.56 41.06 -19.56 43.06 C-16.1 42.57 -16.1 42.57 -12.56 42.06 C-12.23 41.07 -11.9 40.08 -11.56 39.06 C-5.62 38.57 -5.62 38.57 0.44 38.06 C2.02 33.74 2.89 29.63 3.44 25.06 C2.45 25.06 1.46 25.06 0.44 25.06 C0.77 23.41 1.1 21.76 1.44 20.06 C3.61 20.57 5.44 21.06 7.44 22.06 C7.42 20.87 7.4 19.67 7.38 18.44 C7.37 14.88 7.74 11.56 8.44 8.06 C6.13 7.73 3.82 7.4 1.44 7.06 C1.44 5.08 1.44 3.1 1.44 1.06 C0.74 1.39 0.03 1.72 -0.69 2.06 C-3.82 3.15 -6.27 3.22 -9.56 3.06 C-9.56 3.72 -9.56 4.38 -9.56 5.06 C-10.88 4.4 -12.2 3.74 -13.56 3.06 C-12.61 2.86 -12.61 2.86 -11.63 2.66 C-10.8 2.48 -9.98 2.31 -9.12 2.12 C-7.89 1.86 -7.89 1.86 -6.63 1.6 C-0.49 0.01 -0.49 0.01 0 0 Z " fill="#F9E4D5" transform="translate(215.5625,94.9375)"/>
<path d="M0 0 C1.65 0.99 3.3 1.98 5 3 C4.48 10.13 3.56 17.02 2 24 C2.53 23.23 3.06 22.46 3.61 21.66 C4.67 20.16 4.67 20.16 5.75 18.62 C6.45 17.63 7.14 16.63 7.86 15.6 C9.87 13.16 11.09 12.09 14 11 C14.64 12.8 14.64 12.8 15 15 C13.28 17.39 11.6 19.47 9.62 21.62 C5.93 25.54 5.93 25.54 3 30 C0.13 29.43 -0.86 29.14 -3 27 C-3.56 20.55 -2.14 14.34 -1 8 C-3.97 11.63 -6.94 15.26 -10 19 C-11.32 18.67 -12.64 18.34 -14 18 C-12.39 14.33 -10.11 11.51 -7.56 8.44 C-6.78 7.49 -6 6.54 -5.19 5.56 C-3.52 3.61 -1.85 1.77 0 0 Z " fill="#EADBF0" transform="translate(315,49)"/>
<path d="M0 0 C5.66 0.53 10.47 1.62 15.75 3.69 C16.44 3.96 17.14 4.22 17.85 4.5 C32.01 10.07 44.58 17.43 55.71 27.87 C57.72 29.74 59.8 31.46 61.94 33.19 C77.51 46.81 92.3 70.48 96 91 C96.04 92.67 96.05 94.33 96 96 C95.01 96 94.02 96 93 96 C92.95 95.27 92.9 94.54 92.84 93.79 C90.57 72.87 77.35 51.96 62.5 37.5 C61.68 36.67 60.85 35.85 60 35 C60 34.34 60 33.68 60 33 C59.42 32.73 58.85 32.46 58.25 32.19 C55.94 30.97 53.98 29.7 52 28 C52 27.34 52 26.68 52 26 C51.43 25.73 50.86 25.46 50.27 25.18 C47.93 23.97 45.81 22.6 43.62 21.12 C42.83 20.6 42.04 20.07 41.23 19.52 C39.46 18.32 37.73 17.07 36 15.81 C32.89 13.94 30.07 12.91 26.62 11.85 C23.53 10.85 20.53 9.68 17.5 8.5 C12.38 6.51 7.23 4.69 2 3 C2 2.34 2 1.68 2 1 C1.34 0.67 0.68 0.34 0 0 Z " fill="#714129" transform="translate(280,15)"/>
<path d="M0 0 C0.33 0 0.66 0 1 0 C0.84 1.14 0.68 2.28 0.51 3.45 C-0.23 10.13 -0.19 16.83 -0.19 23.55 C-0.19 25.8 -0.21 28.05 -0.22 30.3 C-0.27 40.83 0.17 51.06 4.06 61 C5.53 65.08 6.17 68.42 6.25 72.75 C6.84 83.74 14.2 94.19 20.07 103.18 C20.37 103.78 20.68 104.38 21 105 C20.67 105.66 20.34 106.32 20 107 C0.35 82 -6.94 47.47 -3.72 16.26 C-2.01 4.02 -2.01 4.02 0 0 Z " fill="#91512F" transform="translate(124,109)"/>
<path d="M0 0 C1.05 -0.03 2.09 -0.05 3.17 -0.08 C6.64 0.29 8.5 1.12 11.25 3.25 C11.56 5.94 11.56 5.94 11.25 8.25 C8.78 7.75 8.78 7.75 6.25 7.25 C6.25 6.26 6.25 5.27 6.25 4.25 C2.95 4.25 -0.35 4.25 -3.75 4.25 C-3.75 8.87 -3.75 13.49 -3.75 18.25 C-1.11 18.25 1.53 18.25 4.25 18.25 C4.58 16.93 4.91 15.61 5.25 14.25 C3.6 14.25 1.95 14.25 0.25 14.25 C0.25 13.26 0.25 12.27 0.25 11.25 C3.55 11.25 6.85 11.25 10.25 11.25 C9.64 19.7 9.64 19.7 8.01 22.02 C4.55 24.43 0.28 23.74 -3.75 23.25 C-6.23 22.09 -7.84 21.16 -9.75 19.25 C-10.43 12.55 -9.52 7.35 -6.75 1.25 C-4.96 -0.54 -2.41 0.04 0 0 Z " fill="#E5D6EC" transform="translate(235.75,232.75)"/>
<path d="M0 0 C0.5 0.99 0.5 0.99 1 2 C0.22 4.16 0.22 4.16 -0.94 6.62 C-1.51 7.85 -1.51 7.85 -2.09 9.1 C-2.39 9.73 -2.69 10.35 -3 11 C-0.65 11.69 -0.65 11.69 2 12 C2.99 11.34 3.98 10.68 5 10 C-3.57 29.52 -29.2 43.8 -48.19 51.56 C-49.14 51.96 -49.14 51.96 -50.11 52.36 C-54.63 54.12 -54.63 54.12 -58 53 C-45.8 47.33 -45.8 47.33 -41.38 45.5 C-31.66 41.18 -23.3 35.62 -15 29 C-14.18 28.34 -13.35 27.69 -12.5 27.01 C-7.91 23.36 -7.91 23.36 -6 18 C-5.34 18 -4.68 18 -4 18 C-4.66 16.35 -5.32 14.7 -6 13 C-6.6 13.5 -7.2 13.99 -7.81 14.5 C-10 16 -10 16 -13 16 C-13.25 16.91 -13.5 17.81 -13.75 18.75 C-15.06 22.17 -16.16 23.74 -19 26 C-21.19 26.62 -21.19 26.62 -23 27 C-23.33 27.66 -23.66 28.32 -24 29 C-26.31 29.73 -28.65 30.4 -31 31 C-31 30.34 -31 29.68 -31 29 C-26.62 26 -26.62 26 -24 26 C-23.5 24.51 -23.5 24.51 -23 23 C-22.01 22.67 -21.02 22.34 -20 22 C-18.45 20.34 -17.09 18.58 -15.7 16.79 C-14 15 -14 15 -11.57 13.62 C-8.42 11.64 -6.86 9.43 -4.75 6.38 C-4.06 5.39 -3.38 4.41 -2.67 3.4 C-2.12 2.61 -1.57 1.82 -1 1 C-0.67 0.67 -0.34 0.34 0 0 Z " fill="#C76141" transform="translate(347,210)"/>
<path d="M0 0 C1.16 1.16 2.33 2.33 3.49 3.5 C4.54 4.54 5.6 5.57 6.67 6.6 C8.15 8.03 9.58 9.51 11 11 C11 11.66 11 12.32 11 13 C11.66 13 12.32 13 13 13 C13.72 13.82 14.44 14.65 15.19 15.5 C17.85 18.37 17.85 18.37 21.81 18.31 C23.39 18.16 23.39 18.16 25 18 C25 17.34 25 16.68 25 16 C24.34 16 23.68 16 23 16 C22.67 15.01 22.34 14.02 22 13 C20 11.79 20 11.79 18 11 C18.33 10.34 18.66 9.68 19 9 C20.34 9.78 21.67 10.58 23 11.38 C23.74 11.82 24.49 12.26 25.25 12.71 C25.83 13.14 26.41 13.56 27 14 C27 14.66 27 15.32 27 16 C27.56 16.27 28.11 16.54 28.69 16.81 C31.21 18.11 33.64 19.42 36 21 C36 21.66 36 22.32 36 23 C36.66 23.33 37.32 23.66 38 24 C37.01 24 36.02 24 35 24 C35 23.34 35 22.68 35 22 C32.03 21.67 29.06 21.34 26 21 C26 22.32 26 23.64 26 25 C26.8 25.27 27.61 25.54 28.44 25.81 C29.28 26.2 30.13 26.6 31 27 C31.33 27.99 31.66 28.98 32 30 C33.58 31.28 33.58 31.28 35.57 32.38 C36.3 32.8 37.03 33.23 37.79 33.67 C38.56 34.11 39.33 34.55 40.12 35 C40.87 35.44 41.62 35.88 42.39 36.33 C48.71 39.98 54.65 43.1 62 44 C62 44.66 62 45.32 62 46 C63.22 46.27 64.43 46.54 65.69 46.81 C71.8 48.17 77.9 49.59 84 51 C84 51.33 84 51.66 84 52 C57.64 52.8 31.3 34.17 13.02 16.99 C8.27 12.39 3.88 7.35 0 2 C0 1.34 0 0.68 0 0 Z " fill="#CC6736" transform="translate(145,216)"/>
<path d="M0 0 C0 0.33 0 0.66 0 1 C-0.72 0.93 -1.43 0.86 -2.17 0.79 C-31.4 -1.83 -62.59 -1.15 -89 13 C-89.61 13.32 -90.21 13.65 -90.83 13.98 C-99.52 18.75 -107.28 24.83 -115 31 C-115.66 30.67 -116.32 30.34 -117 30 C-87.49 0.66 -39.89 -10.7 0 0 Z " fill="#6D4026" transform="translate(280,14)"/>
<path d="M0 0 C3.75 0.62 6.74 1.33 9.62 3.94 C9.94 6.62 9.94 6.62 9.62 8.94 C8.31 8.94 6.99 8.94 5.62 8.94 C5.62 7.62 5.62 6.3 5.62 4.94 C2.65 4.61 -0.31 4.28 -3.38 3.94 C-3.38 5.59 -3.38 7.24 -3.38 8.94 C-2.75 9.06 -2.12 9.18 -1.48 9.3 C-0.25 9.56 -0.25 9.56 1 9.81 C1.81 9.97 2.62 10.14 3.46 10.3 C5.62 10.94 5.62 10.94 7.62 12.94 C7.83 16.63 7.8 19.42 6.62 22.94 C1.3 24.02 -2.27 23.8 -7.38 21.94 C-8.37 21.28 -9.36 20.62 -10.38 19.94 C-10.56 16.81 -10.56 16.81 -10.38 13.94 C-7.9 14.43 -7.9 14.43 -5.38 14.94 C-5.38 16.26 -5.38 17.58 -5.38 18.94 C-2.74 18.94 -0.1 18.94 2.62 18.94 C2.62 17.62 2.62 16.3 2.62 14.94 C2.07 14.74 1.52 14.55 0.95 14.35 C0.22 14.09 -0.5 13.83 -1.25 13.56 C-1.97 13.31 -2.69 13.05 -3.43 12.79 C-5.38 11.94 -5.38 11.94 -7.38 9.94 C-7.72 6.73 -7.6 4.52 -6.44 1.5 C-3.93 -0.4 -3.07 -0.25 0 0 Z " fill="#E7D9EF" transform="translate(272.375,30.0625)"/>
<path d="M0 0 C0.33 1.32 0.66 2.64 1 4 C-2.3 4.89 -5.62 5.46 -9 6 C-9.33 7.32 -9.66 8.64 -10 10 C-5.66 9.82 -5.66 9.82 -2 8 C0.88 7.69 0.88 7.69 4 8 C6.51 10.18 6.94 11.68 7.56 14.94 C6.92 18.46 5.72 19.9 2.87 22.03 C-0.36 23.71 -3.39 23.81 -7 24 C-7.66 22.35 -8.32 20.7 -9 19 C-7.68 18.67 -6.36 18.34 -5 18 C-5 18.66 -5 19.32 -5 20 C-2.69 19.01 -0.38 18.02 2 17 C2 15.68 2 14.36 2 13 C-2.13 13.57 -2.13 13.57 -6 15 C-8.94 15.31 -8.94 15.31 -12 15 C-13.88 13.38 -13.88 13.38 -15 11 C-15.19 7.75 -15.19 7.75 -15 5 C-5.77 -0.74 -5.77 -0.74 0 0 Z " fill="#EBDBF1" transform="translate(306,219)"/>
<path d="M0 0 C0.33 0.66 0.66 1.32 1 2 C-0.07 4.03 -0.07 4.03 -1.69 6.5 C-4.39 10.83 -6.39 15.09 -8.14 19.87 C-9 22 -9 22 -11 25 C-11.56 27.38 -12.06 29.78 -12.5 32.19 C-12.74 33.46 -12.97 34.73 -13.22 36.04 C-13.4 37.03 -13.4 37.03 -13.59 38.04 C-13.98 39.89 -14.52 41.7 -15.08 43.5 C-16.6 49.45 -16.3 55.63 -16.26 61.73 C-16.25 63.86 -16.26 66 -16.27 68.14 C-16.28 74.92 -16.08 81.38 -14.33 87.99 C-13.95 90.28 -14.29 91.81 -15 94 C-15 93.34 -15 92.68 -15 92 C-15.66 92 -16.32 92 -17 92 C-20.16 82.53 -19.19 71.39 -19.19 61.47 C-19.19 59.3 -19.21 57.14 -19.22 54.97 C-19.3 36.3 -19.3 36.3 -14 28 C-13.29 24.81 -13.29 24.81 -13 22 C-12.34 22 -11.68 22 -11 22 C-10.67 18.7 -10.34 15.4 -10 12 C-9.34 12 -8.68 12 -8 12 C-8 9.69 -8 7.38 -8 5 C-7.05 4.92 -6.1 4.83 -5.12 4.75 C-1.9 4.35 -1.9 4.35 -0.62 1.94 C-0.32 0.98 -0.32 0.98 0 0 Z " fill="#CD6244" transform="translate(148,76)"/>
<path d="M0 0 C0.66 0.66 1.32 1.32 2 2 C1.62 4.12 1.62 4.12 1 6 C0.24 5.81 -0.53 5.63 -1.31 5.44 C-4.09 4.77 -4.09 4.77 -7 6 C-8.06 8.09 -8.06 8.09 -8 11 C-6.26 13.89 -4.19 16.44 -2 19 C1.93 18.43 1.93 18.43 5 16 C5.17 12.92 5.17 12.92 5 10 C6.32 9.67 7.64 9.34 9 9 C11 12 11 12 10.94 14.38 C9.7 17.84 7.7 19.56 5 22 C4.34 22.66 3.68 23.32 3 24 C-0.06 24.75 -1.1 24.98 -4 24 C-8.71 20.19 -12.37 16.18 -14.06 10.31 C-12.06 4.06 -6.85 -0.92 0 0 Z " fill="#E5D7ED" transform="translate(184,53)"/>
<path d="M0 0 C0 1.32 0 2.64 0 4 C-2.97 4.66 -5.94 5.32 -9 6 C-8.67 7.65 -8.34 9.3 -8 11 C-4.7 10.34 -1.4 9.68 2 9 C2.33 10.32 2.66 11.64 3 13 C0.03 13.66 -2.94 14.32 -6 15 C-6 16.98 -6 18.96 -6 21 C-5.39 20.78 -4.77 20.57 -4.14 20.34 C-3.33 20.07 -2.52 19.79 -1.69 19.5 C-0.89 19.22 -0.09 18.94 0.74 18.66 C3 18 3 18 6 18 C6 19.32 6 20.64 6 22 C4.44 22.54 2.88 23.05 1.31 23.56 C0.44 23.85 -0.43 24.14 -1.32 24.44 C-4.51 25.11 -6.03 25.39 -9 24 C-10.55 21.35 -11.41 18.54 -12.31 15.62 C-12.58 14.84 -12.84 14.06 -13.11 13.26 C-14.18 10.01 -15 7.45 -15 4 C-13.06 3.33 -11.13 2.66 -9.19 2 C-8.11 1.63 -7.03 1.26 -5.92 0.88 C-3 0 -3 0 0 0 Z " fill="#EDDBF1" transform="translate(222,32)"/>
<path d="M0 0 C0 1.32 0 2.64 0 4 C-3.63 4 -7.26 4 -11 4 C-11 5.65 -11 7.3 -11 9 C-7.37 9 -3.74 9 0 9 C0 10.32 0 11.64 0 13 C-3.3 13 -6.6 13 -10 13 C-10 14.98 -10 16.96 -10 19 C-6.37 19 -2.74 19 1 19 C1 19.99 1 20.98 1 22 C-3.96 23.32 -8.91 23.09 -14 23 C-14.71 15.64 -15.15 8.39 -15 1 C-10.04 -0.32 -5.09 -0.09 0 0 Z " fill="#E9DBF1" transform="translate(266,233)"/>
<path d="M0 0 C2 2 2 2 2 5 C2.66 5 3.32 5 4 5 C4 5.66 4 6.32 4 7 C3.01 7.5 3.01 7.5 2 8 C1.77 9.91 1.54 11.81 1.35 13.72 C0.79 17.39 -0.6 20.58 -2 24 C-2.66 24 -3.32 24 -4 24 C-4.15 25.02 -4.15 25.02 -4.31 26.06 C-5.15 29.63 -6.49 32.66 -8 36 C-8.99 36 -9.98 36 -11 36 C-11.27 36.97 -11.54 37.94 -11.81 38.94 C-12.2 39.95 -12.6 40.96 -13 42 C-14.49 42.5 -14.49 42.5 -16 43 C-15.12 35.38 -15.12 35.38 -14 32 C-12.8 31.46 -12.8 31.46 -11.58 30.92 C-7.56 27.93 -7.49 24.08 -6.69 19.31 C-6.52 18.42 -6.35 17.53 -6.18 16.61 C-5.77 14.41 -5.37 12.21 -5 10 C-4.34 10 -3.68 10 -3 10 C-2.88 8.91 -2.75 7.81 -2.62 6.69 C-2 3 -2 3 0 0 Z " fill="#E06427" transform="translate(369,168)"/>
<path d="M0 0 C6.27 0.33 12.54 0.66 19 1 C19.5 2.98 19.5 2.98 20 5 C18.68 4.67 17.36 4.34 16 4 C16 3.34 16 2.68 16 2 C15.41 2.07 14.82 2.14 14.21 2.22 C10.12 2.7 6.13 3.13 2 3 C2 3.66 2 4.32 2 5 C0.35 5 -1.3 5 -3 5 C-3 5.66 -3 6.32 -3 7 C-3.57 7.25 -4.13 7.51 -4.71 7.77 C-5.82 8.29 -5.82 8.29 -6.94 8.81 C-7.67 9.15 -8.4 9.49 -9.15 9.83 C-11.33 10.94 -11.33 10.94 -12 14 C-12.66 14 -13.32 14 -14 14 C-13.34 15.32 -12.68 16.64 -12 18 C-12.61 18.21 -13.23 18.43 -13.86 18.65 C-16.81 20.51 -17.18 22.35 -18.25 25.62 C-18.59 26.63 -18.92 27.63 -19.27 28.66 C-19.51 29.43 -19.75 30.21 -20 31 C-22.84 31 -25.24 30.6 -28 30 C-26.68 29.67 -25.36 29.34 -24 29 C-23.85 28.1 -23.85 28.1 -23.69 27.19 C-23 25 -23 25 -21.5 23.69 C-19.16 21.05 -19.33 18.47 -19 15 C-18.91 14.12 -18.82 13.23 -18.72 12.32 C-18.47 9.88 -18.23 7.44 -18 5 C-17.01 5 -16.02 5 -15 5 C-14.67 4.01 -14.34 3.02 -14 2 C-14 3.98 -14 5.96 -14 8 C-12.68 8 -11.36 8 -10 8 C-9.86 7.36 -9.71 6.72 -9.56 6.06 C-9 4 -9 4 -8 3 C-6.85 2.86 -5.69 2.71 -4.5 2.56 C-3.35 2.38 -2.19 2.19 -1 2 C-0.67 1.34 -0.34 0.68 0 0 Z " fill="#D47442" transform="translate(280,96)"/>
<path d="M0 0 C0.99 0 1.98 0 3 0 C3.66 2.31 4.32 4.62 5 7 C9.45 6.5 9.45 6.5 14 6 C14.12 5.2 14.25 4.39 14.38 3.56 C14.58 2.72 14.79 1.87 15 1 C15.66 0.67 16.32 0.34 17 0 C17 2.64 17 5.28 17 8 C17.66 8 18.32 8 19 8 C20.26 10.91 21 12.8 21 16 C18.62 15.75 18.62 15.75 16 15 C14.69 12.94 14.69 12.94 14 11 C11.36 11.33 8.72 11.66 6 12 C6.33 14.64 6.66 17.28 7 20 C5.68 20 4.36 20 3 20 C2.3 17.42 1.62 14.84 0.94 12.25 C0.74 11.52 0.54 10.79 0.33 10.04 C-0.64 6.29 -1.15 3.7 0 0 Z " fill="#EFE1F5" transform="translate(272,233)"/>
<path d="M0 0 C3.41 0.45 5.08 1.05 8 3 C7.55 8.63 6.32 11.61 3 16 C-2.75 15.25 -2.75 15.25 -5 13 C-4.65 8.91 -2.96 2.96 0 0 Z " fill="#5C3979" transform="translate(293,42)"/>
<path d="M0 0 C4.14 0.6 7.18 2.01 10.81 4.06 C11.79 4.61 12.76 5.16 13.77 5.72 C14.51 6.14 15.24 6.57 16 7 C15.67 7.99 15.34 8.98 15 10 C12.69 9.67 10.38 9.34 8 9 C4.53 16.43 4.53 16.43 1 24 C-0.32 23.67 -1.64 23.34 -3 23 C-2.6 17.85 -0.69 14.37 1.94 10.05 C3.23 7.94 3.23 7.94 3 5 C1.68 4.34 0.36 3.68 -1 3 C-0.67 2.01 -0.34 1.02 0 0 Z " fill="#E9D8EE" transform="translate(201,221)"/>
<path d="M0 0 C1.31 2.06 1.31 2.06 2 4 C1.34 4.66 0.68 5.32 0 6 C-0.12 6.66 -0.25 7.32 -0.38 8 C-1 10 -1 10 -2.75 11.25 C-5.29 12.1 -7.34 12.15 -10 12 C-11.26 9.09 -12 7.2 -12 4 C-13.65 4.33 -15.3 4.66 -17 5 C-16.67 4.01 -16.34 3.02 -16 2 C-13.67 1.02 -13.67 1.02 -10.75 0.25 C-9.8 -0.01 -8.84 -0.28 -7.86 -0.55 C-4.86 -1.02 -2.89 -0.92 0 0 Z " fill="#E2D3EA" transform="translate(287,229)"/>
<path d="M0 0 C0 0.33 0 0.66 0 1 C-3.82 0.47 -7.62 -0.1 -11.43 -0.75 C-27.06 -3.39 -41.72 -3.65 -57.46 -1.71 C-62.35 -1.11 -67.07 -0.91 -72 -1 C-52.97 -11.4 -19.3 -8.2 0 0 Z " fill="#7A3254" transform="translate(289,27)"/>
<path d="M0 0 C0.66 0 1.32 0 2 0 C3.44 2.01 3.44 2.01 5 4.69 C5.52 5.56 6.03 6.43 6.56 7.32 C7.91 9.84 9 12.33 10 15 C10.91 14.69 11.81 14.38 12.75 14.06 C15.17 13.27 17.53 12.57 20 12 C20.33 12.99 20.66 13.98 21 15 C19.43 16.04 17.84 17.05 16.25 18.06 C15.37 18.63 14.49 19.2 13.58 19.79 C11 21 11 21 8.99 20.79 C5.27 19.31 3.98 15.56 2.12 12.19 C1.7 11.46 1.27 10.74 0.83 9.99 C0.43 9.29 0.04 8.58 -0.37 7.86 C-0.73 7.21 -1.09 6.57 -1.46 5.91 C-2 4 -2 4 -1.1 1.76 C-0.56 0.89 -0.56 0.89 0 0 Z " fill="#E7D7EE" transform="translate(191,44)"/>
<path d="M0 0 C0.66 0 1.32 0 2 0 C0.49 3.5 -1.58 5.87 -4.19 8.62 C-11.27 16.38 -16.6 24.47 -21 34 C-21.66 34 -22.32 34 -23 34 C-25.72 42.57 -27.87 51.27 -30 60 C-30.99 60 -31.98 60 -33 60 C-31.36 42.67 -21.46 26.5 -11 13 C-10.27 12.04 -9.54 11.08 -8.79 10.09 C-4.73 4.87 -4.73 4.87 -3 3 C-2.34 3 -1.68 3 -1 3 C-0.67 2.01 -0.34 1.02 0 0 Z " fill="#714329" transform="translate(158,48)"/>
<path d="M0 0 C0.95 0.19 1.9 0.37 2.88 0.56 C3.58 0.71 4.28 0.85 5 1 C3.75 3 3.75 3 2 5 C0.68 5 -0.64 5 -2 5 C-2.66 8.63 -3.32 12.26 -4 16 C-4.33 15.34 -4.66 14.68 -5 14 C-7.53 13.34 -7.53 13.34 -10 13 C-10.62 4.02 -10.62 4.02 -8.38 0.31 C-5.14 -1.47 -3.52 -0.93 0 0 Z " fill="#DE6628" transform="translate(271,143)"/>
<path d="M0 0 C0 4.15 -2.23 5.84 -4.94 8.69 C-5.44 9.22 -5.94 9.76 -6.45 10.31 C-19.38 23.95 -34.79 34.45 -52.19 41.56 C-53.14 41.96 -53.14 41.96 -54.11 42.36 C-58.63 44.12 -58.63 44.12 -62 43 C-49.8 37.33 -49.8 37.33 -45.38 35.5 C-29.66 28.52 -15.57 17.94 -4.51 4.76 C-3.08 3.09 -1.58 1.54 0 0 Z " fill="#724127" transform="translate(351,220)"/>
<path d="M0 0 C5.87 5.53 10.68 11.61 14 19 C14.32 19.69 14.63 20.38 14.96 21.09 C16 23.38 17.01 25.69 18 28 C18.32 28.73 18.63 29.46 18.96 30.21 C20.48 33.94 21.25 36.16 20 40 C19.67 38.68 19.34 37.36 19 36 C18.34 36 17.68 36 17 36 C16.82 35.36 16.64 34.72 16.45 34.06 C14.28 26.31 14.28 26.31 11 19 C8.42 17.95 8.42 17.95 6 18 C5.88 16.42 5.88 16.42 5.75 14.81 C4.93 10.63 3.64 9.22 1 6 C0.25 2.69 0.25 2.69 0 0 Z " fill="#D57442" transform="translate(310,84)"/>
<path d="M0 0 C0.99 0.33 1.98 0.66 3 1 C1.62 3.5 1.62 3.5 0 6 C-0.66 6 -1.32 6 -2 6 C-2.33 7.98 -2.66 9.96 -3 12 C-4.32 12 -5.64 12 -7 12 C-7 16.62 -7 21.24 -7 26 C-7.66 26 -8.32 26 -9 26 C-8.67 29.63 -8.34 33.26 -8 37 C-6.68 37 -5.36 37 -4 37 C-4 37.66 -4 38.32 -4 39 C-3.01 39 -2.02 39 -1 39 C-1 39.66 -1 40.32 -1 41 C0.08 40.72 0.08 40.72 1.19 40.44 C4.13 39.98 6.14 40.26 9 41 C9 41.33 9 41.66 9 42 C1.57 43.29 1.57 43.29 -2 42 C-2 41.34 -2 40.68 -2 40 C-2.99 40 -3.98 40 -5 40 C-5 39.34 -5 38.68 -5 38 C-6.32 38 -7.64 38 -9 38 C-12.63 26.48 -12.63 26.48 -11 21 C-10.01 21 -9.02 21 -8 21 C-8.39 19.95 -8.78 18.9 -9.19 17.81 C-10 14 -10 14 -8.75 11.06 C-8.17 10.38 -7.59 9.7 -7 9 C-6.34 9 -5.68 9 -5 9 C-4.67 7.02 -4.34 5.04 -4 3 C-3.67 3.66 -3.34 4.32 -3 5 C-2.34 5 -1.68 5 -1 5 C-0.67 3.35 -0.34 1.7 0 0 Z " fill="#F9E5D1" transform="translate(240,86)"/>
<path d="M0 0 C32.51 -0.62 32.51 -0.62 46 3 C46 3.33 46 3.66 46 4 C44.93 3.9 44.93 3.9 43.85 3.79 C24.25 2.02 5.22 2.16 -13.97 6.75 C-16.24 7.03 -17.83 6.69 -20 6 C-12.71 4.18 -12.71 4.18 -5.42 2.36 C-4.71 2.18 -3.99 2 -3.25 1.81 C-2.18 1.54 -1.1 1.28 0 1 C0 0.67 0 0.34 0 0 Z " fill="#95522F" transform="translate(234,11)"/>
<path d="M0 0 C1.65 0 3.3 0 5 0 C5 0.66 5 1.32 5 2 C3.68 2 2.36 2 1 2 C1.02 2.76 1.04 3.53 1.06 4.31 C1 7 1 7 0 10 C0.33 10.99 0.66 11.98 1 13 C-2.96 13 -6.92 13 -11 13 C-11.33 12.01 -11.66 11.02 -12 10 C-10.35 10 -8.7 10 -7 10 C-7 9.34 -7 8.68 -7 8 C-7.56 8.16 -8.12 8.33 -8.7 8.5 C-11.13 9.03 -13.27 9.1 -15.75 9.06 C-16.55 9.05 -17.35 9.04 -18.17 9.04 C-18.78 9.02 -19.38 9.01 -20 9 C-19.67 7.68 -19.34 6.36 -19 5 C-18.67 5.33 -18.34 5.66 -18 6 C-15.3 6.07 -12.63 6.09 -9.94 6.06 C-8.8 6.06 -8.8 6.06 -7.64 6.05 C-5.76 6.04 -3.88 6.02 -2 6 C-1.34 4.02 -0.68 2.04 0 0 Z " fill="#D96C30" transform="translate(247,196)"/>
<path d="M0 0 C0.66 0 1.32 0 2 0 C2.33 3.96 2.66 7.92 3 12 C2.34 12 1.68 12 1 12 C1 13.65 1 15.3 1 17 C0.34 17 -0.32 17 -1 17 C-1 17.99 -1 18.98 -1 20 C-1.66 20 -2.32 20 -3 20 C-3.33 20.99 -3.66 21.98 -4 23 C-4.99 23 -5.98 23 -7 23 C-6.67 24.32 -6.34 25.64 -6 27 C-6.99 27 -7.98 27 -9 27 C-9 27.99 -9 28.98 -9 30 C-10.53 31.39 -10.53 31.39 -12.5 32.69 C-13.15 33.12 -13.8 33.56 -14.47 34.01 C-15.23 34.5 -15.23 34.5 -16 35 C-16 34.01 -16 33.02 -16 32 C-15.01 31.34 -14.02 30.68 -13 30 C-12.75 27.42 -12.75 27.42 -13 25 C-12.01 25 -11.02 25 -10 25 C-10 24.01 -10 23.02 -10 22 C-8 20 -8 20 -6 19 C-5.34 19.33 -4.68 19.66 -4 20 C-3.67 18.68 -3.34 17.36 -3 16 C-2.01 16 -1.02 16 0 16 C0 11.71 0 7.42 0 3 C-2.31 3 -4.62 3 -7 3 C-7 2.67 -7 2.34 -7 2 C-4.69 2 -2.38 2 0 2 C0 1.34 0 0.68 0 0 Z " fill="#F9E9D8" transform="translate(312,141)"/>
<path d="M0 0 C4.71 1.62 8.6 4.19 12.75 6.88 C23.62 13.82 23.62 13.82 36 17 C36 17.66 36 18.32 36 19 C37.22 19.27 38.43 19.54 39.69 19.81 C45.8 21.17 51.9 22.59 58 24 C58 24.33 58 24.66 58 25 C39.69 25.56 19.58 15.57 5 5 C3.3 3.37 1.62 1.71 0 0 Z " fill="#72462D" transform="translate(171,243)"/>
<path d="M0 0 C4.29 0 8.58 0 13 0 C13 0.66 13 1.32 13 2 C13.66 2.33 14.32 2.66 15 3 C5.59 3.18 5.59 3.18 1 2 C1 2.99 1 3.98 1 5 C0.23 5.12 -0.54 5.24 -1.34 5.37 C-2.34 5.53 -3.34 5.7 -4.38 5.88 C-5.37 6.04 -6.37 6.2 -7.4 6.37 C-10.14 6.8 -10.14 6.8 -12 9 C-14.13 9.41 -16.28 9.73 -18.44 10 C-23.53 10.62 -23.53 10.62 -28 13 C-30.33 13.08 -32.67 13.09 -35 13 C-33 11 -33 11 -29.88 10.88 C-28.93 10.92 -27.98 10.96 -27 11 C-27 10.34 -27 9.68 -27 9 C-21.56 8.5 -21.56 8.5 -16 8 C-16 7.34 -16 6.68 -16 6 C-14.68 6 -13.36 6 -12 6 C-12 5.34 -12 4.68 -12 4 C-6.06 3.5 -6.06 3.5 0 3 C0 2.01 0 1.02 0 0 Z " fill="#F5D5BC" transform="translate(238,132)"/>
<path d="M0 0 C0.62 1.81 0.62 1.81 1 4 C0.01 5.48 0.01 5.48 -1 7 C-1.45 9.28 -1.45 9.28 -1.62 11.69 C-1.7 12.5 -1.77 13.3 -1.85 14.14 C-1.9 14.75 -1.95 15.37 -2 16 C-2.66 16 -3.32 16 -4 16 C-4 18.64 -4 21.28 -4 24 C-4.66 24 -5.32 24 -6 24 C-6.03 28.14 -6.04 32.28 -6.05 36.42 C-6.06 37.82 -6.07 39.22 -6.08 40.62 C-6.14 50.47 -5.79 60.19 -5 70 C-10.29 64.71 -8.33 51.98 -8.38 44.94 C-8.38 44.24 -8.38 43.53 -8.39 42.81 C-8.42 28.95 -8.27 11.72 0 0 Z " fill="#7B3351" transform="translate(139,96)"/>
<path d="M0 0 C1.32 0 2.64 0 4 0 C3.34 7.21 1.24 14.51 -2 21 C-3.32 21 -4.64 21 -6 21 C-6.46 16.1 -4.8 12.44 -3 8 C-2.43 6.5 -1.87 5 -1.31 3.5 C-0.88 2.34 -0.45 1.19 0 0 Z " fill="#EADAF2" transform="translate(220,230)"/>
<path d="M0 0 C1.32 0 2.64 0 4 0 C4 0.66 4 1.32 4 2 C3.01 2 2.02 2 1 2 C0.67 3.32 0.34 4.64 0 6 C-0.66 6 -1.32 6 -2 6 C-2 6.66 -2 7.32 -2 8 C-1.34 8.33 -0.68 8.66 0 9 C-1.98 9 -3.96 9 -6 9 C-8.2 13.55 -8.59 18.03 -9 23 C-9.66 22.67 -10.32 22.34 -11 22 C-11.88 17.25 -12.7 12.63 -11 8 C-10.01 7.67 -9.02 7.34 -8 7 C-8 5.68 -8 4.36 -8 3 C-5.29 1.65 -2.99 1.93 0 2 C0 1.34 0 0.68 0 0 Z " fill="#F4D6C6" transform="translate(199,145)"/>
<path d="M0 0 C9.9 0.66 19.8 1.32 30 2 C30 2.33 30 2.66 30 3 C20.99 3.63 12.04 4.17 3 4 C3 5.32 3 6.64 3 8 C5.31 8 7.62 8 10 8 C10 8.33 10 8.66 10 9 C8.72 9.14 7.44 9.29 6.12 9.44 C3.74 9.71 2.16 9.92 0 11 C-0.33 10.01 -0.66 9.02 -1 8 C-1.99 8 -2.98 8 -4 8 C-4 7.34 -4 6.68 -4 6 C-5.32 5.67 -6.64 5.34 -8 5 C-4.25 3.88 -4.25 3.88 -2 5 C-2 4.01 -2 3.02 -2 2 C-1.34 2 -0.68 2 0 2 C0 1.34 0 0.68 0 0 Z " fill="#6E508B" transform="translate(228,224)"/>
<path d="M0 0 C0.33 0 0.66 0 1 0 C3.87 17.58 2.49 35.11 -6 51 C-7.1 47.71 -6.8 46.29 -6 43 C-5.34 43 -4.68 43 -4 43 C-4 40.36 -4 37.72 -4 35 C-3.34 35 -2.68 35 -2 35 C-1.06 30.96 -0.81 27.09 -0.68 22.95 C-0.66 22.29 -0.64 21.63 -0.62 20.95 C-0.56 18.86 -0.5 16.78 -0.44 14.69 C-0.39 13.26 -0.35 11.84 -0.31 10.42 C-0.2 6.95 -0.1 3.47 0 0 Z " fill="#D57D53" transform="translate(331,125)"/>
<path d="M0 0 C1.32 0.33 2.64 0.66 4 1 C4.19 2.96 4.38 4.92 4.56 6.88 C4.67 7.97 4.77 9.06 4.88 10.18 C5 13 5 13 4 15 C2.68 15 1.36 15 0 15 C-0.33 17.64 -0.66 20.28 -1 23 C-2.65 23.33 -4.3 23.66 -6 24 C-5.67 25.32 -5.34 26.64 -5 28 C-5.66 28 -6.32 28 -7 28 C-7 29.65 -7 31.3 -7 33 C-7.66 33 -8.32 33 -9 33 C-8.34 29.7 -7.68 26.4 -7 23 C-5.68 22.67 -4.36 22.34 -3 22 C-3.02 20.72 -3.04 19.44 -3.06 18.12 C-3.12 14.25 -3.12 14.25 -2 12 C-0.68 12 0.64 12 2 12 C2 9.69 2 7.38 2 5 C1.34 4.67 0.68 4.34 0 4 C0 2.68 0 1.36 0 0 Z " fill="#F6D1BE" transform="translate(300,102)"/>
<path d="M0 0 C0.33 0 0.66 0 1 0 C1.03 1.48 1.05 2.96 1.06 4.44 C1.07 5.26 1.09 6.08 1.1 6.93 C1 9 1 9 0 10 C-0.13 12.43 -0.19 14.82 -0.19 17.25 C-0.19 17.99 -0.19 18.73 -0.19 19.49 C-0.1 29.04 0.95 38.52 2 48 C-3.53 42.47 -3.3 29.28 -3.31 21.75 C-3 6 -3 6 0 0 Z " fill="#D87D55" transform="translate(170,118)"/>
<path d="M0 0 C0.5 1.49 0.5 1.49 1 3 C0.01 3 -0.98 3 -2 3 C-2.31 3.9 -2.31 3.9 -2.62 4.81 C-4.58 7.92 -6.62 8.6 -10 10 C-12.69 10.36 -15.19 10.6 -17.88 10.69 C-18.56 10.72 -19.25 10.76 -19.96 10.79 C-21.64 10.87 -23.32 10.94 -25 11 C-25 11.66 -25 12.32 -25 13 C-25.66 13 -26.32 13 -27 13 C-27 13.66 -27 14.32 -27 15 C-28.98 14.34 -30.96 13.68 -33 13 C-29.38 10.97 -25.52 9.91 -21.56 8.75 C-14.01 6.48 -7.06 3.52 0 0 Z " fill="#F2EBE5" transform="translate(311,255)"/>
<path d="M0 0 C5.86 0.53 10.74 1.76 16.19 3.94 C16.87 4.2 17.56 4.47 18.26 4.74 C20.18 5.48 22.09 6.24 24 7 C24.97 7.31 25.93 7.62 26.93 7.94 C29 9 29 9 29.81 11.12 C29.87 11.74 29.94 12.36 30 13 C24.4 11.21 18.95 9.2 13.51 6.98 C9.72 5.5 5.87 4.23 2 3 C2 2.34 2 1.68 2 1 C1.34 0.67 0.68 0.34 0 0 Z " fill="#99532F" transform="translate(280,15)"/>
<path d="M0 0 C3.96 2.64 4.15 5.48 5.12 9.88 C5.29 10.6 5.46 11.32 5.64 12.06 C6.1 14.04 6.55 16.02 7 18 C7.18 18.66 7.36 19.31 7.55 19.98 C8.02 22.07 8.13 23.92 8.15 26.06 C8.15 26.85 8.16 27.64 8.16 28.45 C8.17 29.29 8.17 30.13 8.17 31 C8.17 31.87 8.17 32.75 8.18 33.64 C8.18 35.49 8.19 37.33 8.19 39.17 C8.19 41.99 8.21 44.81 8.22 47.62 C8.23 49.42 8.23 51.21 8.23 53 C8.24 53.84 8.24 54.68 8.25 55.55 C8.25 56.34 8.25 57.13 8.24 57.94 C8.24 58.63 8.25 59.32 8.25 60.03 C7.96 62.35 7.14 63.98 6 66 C6.01 64.82 6.01 63.65 6.02 62.44 C6.03 58.06 6.05 53.68 6.05 49.29 C6.06 47.4 6.07 45.51 6.08 43.62 C6.09 40.89 6.09 38.16 6.1 35.43 C6.1 34.59 6.11 33.76 6.11 32.89 C6.11 23.28 4.24 14.77 0.59 5.89 C0 4 0 4 0 0 Z " fill="#B85850" transform="translate(362,98)"/>
<path d="M0 0 C0.66 0 1.32 0 2 0 C1.26 5.46 -0.24 10.61 -1.81 15.88 C-2.18 17.16 -2.18 17.16 -2.56 18.48 C-6.74 32.5 -6.74 32.5 -12 36 C-12 34.68 -12 33.36 -12 32 C-11.34 32 -10.68 32 -10 32 C-10.12 30.39 -10.12 30.39 -10.25 28.75 C-9.95 24.27 -9.07 23.98 -6 21 C-5.6 18.68 -5.26 16.34 -5 14 C-4.34 13.34 -3.68 12.68 -3 12 C-2.65 9.67 -2.32 7.34 -2 5 C-0.94 2.06 -0.94 2.06 0 0 Z " fill="#713157" transform="translate(365,164)"/>
<path d="M0 0 C0.33 0 0.66 0 1 0 C1.33 5.94 1.66 11.88 2 18 C3.32 18 4.64 18 6 18 C6.33 17.34 6.66 16.68 7 16 C7 16.66 7 17.32 7 18 C7.66 18.33 8.32 18.66 9 19 C6.36 19 3.72 19 1 19 C0.67 19.66 0.34 20.32 0 21 C-2.47 20.01 -2.47 20.01 -5 19 C-3.65 12.55 -1.97 6.29 0 0 Z " fill="#64467D" transform="translate(252,32)"/>
<path d="M0 0 C10.37 1.5 10.37 1.5 14 6 C14.99 6.33 15.98 6.66 17 7 C16.34 12.94 15.68 18.88 15 25 C12.77 20.53 12.95 19.46 13.88 14.75 C14.08 13.67 14.28 12.59 14.49 11.48 C14.74 10.25 14.74 10.25 15 9 C14.4 8.86 13.8 8.71 13.19 8.56 C11.44 8.11 9.71 7.57 8 7 C8 6.01 8 5.02 8 4 C7.01 4 6.02 4 5 4 C5 4.66 5 5.32 5 6 C4.34 6 3.68 6 3 6 C3 5.01 3 4.02 3 3 C1.68 3.33 0.36 3.66 -1 4 C-0.67 2.68 -0.34 1.36 0 0 Z " fill="#D5794C" transform="translate(253,75)"/>
<path d="M0 0 C0 0.66 0 1.32 0 2 C1.32 2.33 2.64 2.66 4 3 C3.34 3.99 2.68 4.98 2 6 C2 5.01 2 4.02 2 3 C-3.94 3.33 -9.88 3.66 -16 4 C-16.33 4.66 -16.66 5.32 -17 6 C-18 7 -18 7 -20.56 7.06 C-21.77 7.03 -21.77 7.03 -23 7 C-23 7.99 -23 8.98 -23 10 C-24.32 10 -25.64 10 -27 10 C-27 10.99 -27 11.98 -27 13 C-27.99 13.33 -28.98 13.66 -30 14 C-30 13.34 -30 12.68 -30 12 C-29.34 12 -28.68 12 -28 12 C-27.94 11.4 -27.88 10.8 -27.81 10.19 C-26.66 7.08 -24.93 6.4 -22 5 C-21.01 5 -20.02 5 -19 5 C-19 4.34 -19 3.68 -19 3 C-17.35 3 -15.7 3 -14 3 C-14 2.34 -14 1.68 -14 1 C-9.33 -0.21 -4.79 -0.09 0 0 Z " fill="#F7D8C6" transform="translate(296,98)"/>
<path d="M0 0 C0.99 0 1.98 0 3 0 C3.82 2.56 4.63 5.12 5.44 7.69 C5.67 8.41 5.9 9.13 6.13 9.87 C7.3 13.56 8.34 17.18 9 21 C8.34 21 7.68 21 7 21 C7 20.01 7 19.02 7 18 C6.01 18 5.02 18 4 18 C3.67 16.02 3.34 14.04 3 12 C2.01 12 1.02 12 0 12 C-1.12 8.65 -0.79 6.41 0 3 C0 2.01 0 1.02 0 0 Z " fill="#F1ECE6" transform="translate(121,170)"/>
<path d="M0 0 C0.99 0.33 1.98 0.66 3 1 C2.67 1.99 2.34 2.98 2 4 C1.96 6.33 1.96 8.67 2 11 C2.66 10.34 3.32 9.68 4 9 C4.66 10.32 5.32 11.64 6 13 C5.39 13.21 4.77 13.43 4.14 13.65 C1.19 15.51 0.82 17.35 -0.25 20.62 C-0.59 21.63 -0.92 22.63 -1.27 23.66 C-1.51 24.43 -1.75 25.21 -2 26 C-4.84 26 -7.24 25.6 -10 25 C-8.68 24.67 -7.36 24.34 -6 24 C-5.85 23.1 -5.85 23.1 -5.69 22.19 C-5 20 -5 20 -3.5 18.69 C-1.16 16.05 -1.33 13.47 -1 10 C-0.91 9.12 -0.82 8.23 -0.72 7.32 C-0.47 4.88 -0.23 2.44 0 0 Z " fill="#D69D7E" transform="translate(262,101)"/>
<path d="M0 0 C0.19 2.88 0.19 2.88 0 6 C-3.23 8.15 -4.28 8.2 -8 8 C-8.66 5.69 -9.32 3.38 -10 1 C-6.79 -0.61 -3.56 -0.06 0 0 Z " fill="#604278" transform="translate(285,233)"/>
<path d="M0 0 C0 0.66 0 1.32 0 2 C-7.15 3.89 -13.68 4.25 -21.06 4.12 C-22.12 4.12 -23.18 4.11 -24.26 4.1 C-26.84 4.07 -29.42 4.04 -32 4 C-32 3.34 -32 2.68 -32 2 C-31.28 1.97 -30.57 1.95 -29.83 1.92 C-26.59 1.81 -23.36 1.69 -20.12 1.56 C-19 1.52 -17.87 1.48 -16.71 1.44 C-15.63 1.4 -14.55 1.36 -13.45 1.32 C-11.95 1.26 -11.95 1.26 -10.43 1.21 C-6.76 0.89 -3.88 -0.08 0 0 Z " fill="#CA6049" transform="translate(272,258)"/>
<path d="M0 0 C0.99 0 1.98 0 3 0 C3.66 1.32 4.32 2.64 5 4 C0.25 8 0.25 8 -2 8 C-2.33 8.99 -2.66 9.98 -3 11 C-5.97 11 -8.94 11 -12 11 C-12 10.01 -12 9.02 -12 8 C-7.05 7.01 -7.05 7.01 -2 6 C-2.33 5.01 -2.66 4.02 -3 3 C-1.35 3.33 0.3 3.66 2 4 C2 3.01 2 2.02 2 1 C1.34 0.67 0.68 0.34 0 0 Z " fill="#F9E6DC" transform="translate(291,174)"/>
<path d="M0 0 C0.33 0 0.66 0 1 0 C1.66 2.64 2.32 5.28 3 8 C4.65 8.33 6.3 8.66 8 9 C8 10.32 8 11.64 8 13 C7.01 13 6.02 13 5 13 C5.63 15.97 5.63 15.97 7 19 C9.51 20.44 9.51 20.44 12 21 C11.34 21.99 10.68 22.98 10 24 C9.34 23.67 8.68 23.34 8 23 C8 22.34 8 21.68 8 21 C7.39 20.79 6.77 20.58 6.14 20.37 C3.12 18.43 2.82 16.46 1.81 13.06 C1.49 12 1.17 10.94 0.83 9.85 C0.56 8.91 0.28 7.97 0 7 C-0.33 6.01 -0.66 5.02 -1 4 C-0.56 1.81 -0.56 1.81 0 0 Z " fill="#F8E3D3" transform="translate(267,159)"/>
<path d="M0 0 C2.64 0 5.28 0 8 0 C7.01 0.33 6.02 0.66 5 1 C7.76 2.8 8.89 3.01 12.25 2.62 C13.61 2.32 13.61 2.32 15 2 C14 5 14 5 12.11 5.95 C4.24 8.41 4.24 8.41 0 8 C0 6.35 0 4.7 0 3 C1.32 3 2.64 3 4 3 C4 2.34 4 1.68 4 1 C2.68 0.67 1.36 0.34 0 0 Z " fill="#F2D5BD" transform="translate(248,195)"/>
<path d="M0 0 C1.16 1.16 2.33 2.33 3.49 3.5 C4.54 4.54 5.6 5.57 6.67 6.6 C8.15 8.03 9.58 9.51 11 11 C11 11.66 11 12.32 11 13 C11.66 13 12.32 13 13 13 C14.73 14.63 16.36 16.29 18 18 C19.27 19.27 20.54 20.54 21.81 21.81 C22.88 22.88 23.94 23.94 25 25 C20.91 25 19.26 22.91 16.44 20.25 C15.91 19.76 15.39 19.28 14.85 18.77 C9.42 13.63 4.4 8.06 0 2 C0 1.34 0 0.68 0 0 Z " fill="#70422D" transform="translate(145,216)"/>
<path d="M0 0 C6.62 0.75 6.62 0.75 10 3 C10.8 3.14 11.61 3.29 12.44 3.44 C15.33 4.07 16.84 5 19 7 C19 7.66 19 8.32 19 9 C20.13 9.12 21.27 9.25 22.44 9.38 C23.61 9.58 24.79 9.79 26 10 C26.33 10.66 26.66 11.32 27 12 C21.7 11.02 17.58 9.94 13 7 C11.67 6.5 10.34 6.02 9 5.56 C5.42 4.29 2.84 2.57 0 0 Z " fill="#D78158" transform="translate(203,209)"/>
<path d="M0 0 C-2.4 2.64 -5.01 4.36 -8.06 6.19 C-8.94 6.72 -9.82 7.25 -10.72 7.79 C-13 9 -13 9 -15 9 C-14.67 7.68 -14.34 6.36 -14 5 C-13.01 5 -12.02 5 -11 5 C-11 4.34 -11 3.68 -11 3 C-11.99 2.67 -12.98 2.34 -14 2 C-14 1.67 -14 1.34 -14 1 C-4.59 -0.15 -4.59 -0.15 0 0 Z " fill="#F2EDE6" transform="translate(193,23)"/>
<path d="M0 0 C2.23 2.23 2.69 3.66 3.62 6.62 C3.89 7.44 4.15 8.26 4.41 9.1 C4.61 9.73 4.8 10.35 5 11 C4.01 10.67 3.02 10.34 2 10 C1.67 10.66 1.34 11.32 1 12 C0.01 9.69 -0.98 7.38 -2 5 C-2.66 6.32 -3.32 7.64 -4 9 C-4.33 6.36 -4.66 3.72 -5 1 C-2.62 0.38 -2.62 0.38 0 0 Z " fill="#DDD2E3" transform="translate(238,31)"/>
<path d="M0 0 C5.37 -0.36 5.37 -0.36 7.88 1.06 C10.38 5.37 8.95 10.37 8 15 C7.86 18.54 7.95 21.6 9 25 C7 24 7 24 6 22 C5.94 20.65 5.94 19.29 5.97 17.94 C5.98 17.14 6 16.34 6.01 15.52 C6.04 13.84 6.08 12.16 6.13 10.48 C6.14 9.28 6.14 9.28 6.16 8.06 C6.18 7.33 6.19 6.6 6.21 5.85 C6.17 3.75 6.17 3.75 4 2 C2.68 1.3 1.35 0.63 0 0 Z " fill="#F1C3AA" transform="translate(252,136)"/>
<path d="M0 0 C1.1 3.41 0.94 6.21 0.56 9.75 C0.41 11.23 0.41 11.23 0.25 12.73 C0.13 13.86 0.13 13.86 0 15 C0.66 15 1.32 15 2 15 C2 15.99 2 16.98 2 18 C2.66 18.33 3.32 18.66 4 19 C4 19.66 4 20.32 4 21 C1.56 20.62 1.56 20.62 -1 20 C-3.52 14.96 -2.4 7.51 -1 2.25 C-0.67 1.51 -0.34 0.77 0 0 Z " fill="#D57644" transform="translate(185,114)"/>
<path d="M0 0 C8.14 4.59 14.1 9.76 20 17 C19.01 17 18.02 17 17 17 C15.79 15.49 14.58 13.98 13.4 12.45 C11.32 10.3 8.81 9.87 6 9 C4.88 7.06 4.88 7.06 4 5 C2.68 3.99 1.34 2.99 0 2 C0 1.34 0 0.68 0 0 Z " fill="#813751" transform="translate(320,44)"/>
<path d="M0 0 C0.66 0 1.32 0 2 0 C3.12 7.62 3.12 7.62 2 11 C2.66 11.33 3.32 11.66 4 12 C4 14.64 4 17.28 4 20 C1.71 17.71 1.32 16.27 0.44 13.19 C0.19 12.34 -0.06 11.48 -0.32 10.61 C-0.98 8.08 -1.52 5.56 -2 3 C-1.34 3 -0.68 3 0 3 C0 2.01 0 1.02 0 0 Z " fill="#EFEBE9" transform="translate(372,86)"/>
<path d="M0 0 C2.64 0.33 5.28 0.66 8 1 C8 2.98 8 4.96 8 7 C8.66 7.33 9.32 7.66 10 8 C9.67 9.32 9.34 10.64 9 12 C5.1 8.53 2.63 4.45 0 0 Z " fill="#F3EBE3" transform="translate(350,57)"/>
<path d="M0 0 C0.99 0.33 1.98 0.66 3 1 C1.77 1.9 1.77 1.9 0.52 2.83 C-0.57 3.64 -1.66 4.44 -2.75 5.25 C-3.56 5.84 -3.56 5.84 -4.38 6.45 C-7.5 8.77 -10.33 11.17 -13 14 C-13.99 13.67 -14.98 13.34 -16 13 C-15.38 12.24 -14.76 11.47 -14.12 10.69 C-11.94 8 -11.94 8 -10 5 C-7.38 4.81 -7.38 4.81 -5 5 C-5 4.34 -5 3.68 -5 3 C-4.01 3 -3.02 3 -2 3 C-2 2.34 -2 1.68 -2 1 C-1.34 0.67 -0.68 0.34 0 0 Z " fill="#EDE4DD" transform="translate(175,32)"/>
<path d="M0 0 C0.66 0 1.32 0 2 0 C2.33 3.96 2.66 7.92 3 12 C2.34 12 1.68 12 1 12 C1 13.65 1 15.3 1 17 C0.34 17 -0.32 17 -1 17 C-1 17.99 -1 18.98 -1 20 C-1.66 19.67 -2.32 19.34 -3 19 C-2.67 18.01 -2.34 17.02 -2 16 C-1.34 16 -0.68 16 0 16 C0 11.71 0 7.42 0 3 C-2.31 3 -4.62 3 -7 3 C-7 2.67 -7 2.34 -7 2 C-4.69 2 -2.38 2 0 2 C0 1.34 0 0.68 0 0 Z " fill="#F7D2B5" transform="translate(312,141)"/>
<path d="M0 0 C0.33 0 0.66 0 1 0 C0.99 0.86 0.98 1.71 0.96 2.6 C0.92 8.51 0.92 14.18 2 20 C-1.82 17.45 -1.99 15.86 -2.86 11.53 C-3.09 7.32 -1.67 3.81 0 0 Z " fill="#F9DCCB" transform="translate(262,118)"/>
<path d="M0 0 C7.8 3.6 14.96 9.05 20 16 C18.68 15.67 17.36 15.34 16 15 C16 14.34 16 13.68 16 13 C13.52 12.01 13.52 12.01 11 11 C11 10.34 11 9.68 11 9 C10.44 8.73 9.89 8.46 9.31 8.19 C1.6 4.23 1.6 4.23 0 0 Z " fill="#D18051" transform="translate(290,68)"/>
<path d="M0 0 C0 0.99 0 1.98 0 3 C-0.96 3.16 -0.96 3.16 -1.93 3.33 C-2.76 3.49 -3.59 3.65 -4.44 3.81 C-5.67 4.04 -5.67 4.04 -6.93 4.27 C-7.62 4.51 -8.3 4.75 -9 5 C-9.33 5.99 -9.66 6.98 -10 8 C-10.66 5.69 -11.32 3.38 -12 1 C-11.24 0.86 -10.47 0.71 -9.69 0.56 C-2.82 -0.88 -2.82 -0.88 0 0 Z " fill="#DBC9E3" transform="translate(225,42)"/>
<path d="M0 0 C0.99 0 1.98 0 3 0 C3 1.65 3 3.3 3 5 C3.66 5 4.32 5 5 5 C8 11.62 8 11.62 8 15 C8.66 15 9.32 15 10 15 C10.66 17.31 11.32 19.62 12 22 C11.34 22 10.68 22 10 22 C10 20.68 10 19.36 10 18 C9.34 18 8.68 18 8 18 C3.85 13.67 2 7.87 2 2 C1.34 2 0.68 2 0 2 C0 1.34 0 0.68 0 0 Z " fill="#73335B" transform="translate(140,186)"/>
<path d="M0 0 C1.65 0.33 3.3 0.66 5 1 C4.67 2.32 4.34 3.64 4 5 C3.01 5 2.02 5 1 5 C1 5.66 1 6.32 1 7 C-1.31 7 -3.62 7 -6 7 C-6 6.01 -6 5.02 -6 4 C-6.99 3.34 -7.98 2.68 -9 2 C-2.25 2.88 -2.25 2.88 0 4 C0 2.68 0 1.36 0 0 Z " fill="#DA6B34" transform="translate(311,136)"/>
<path d="M0 0 C1.44 0.45 2.88 0.91 4.31 1.38 C5.11 1.63 5.91 1.89 6.74 2.15 C9 3 9 3 12 5 C12 5.66 12 6.32 12 7 C12.74 7.27 13.49 7.54 14.25 7.81 C16.87 8.94 18.8 10.21 21 12 C16.25 11.42 13.03 9.45 9 7 C9 6.34 9 5.68 9 5 C6.03 4.67 3.06 4.34 0 4 C0 2.68 0 1.36 0 0 Z " fill="#753056" transform="translate(299,32)"/>
<path d="M0 0 C3.3 0 6.6 0 10 0 C3.34 4.44 -3.17 5.53 -11 6 C-11 5.34 -11 4.68 -11 4 C-9.02 4 -7.04 4 -5 4 C-5 3.34 -5 2.68 -5 2 C-3.35 2 -1.7 2 0 2 C0 1.34 0 0.68 0 0 Z " fill="#723058" transform="translate(285,251)"/>
<path d="M0 0 C0.33 0 0.66 0 1 0 C1.66 7.26 2.32 14.52 3 22 C-1 18 -1 18 -1.43 15.7 C-1.39 14.89 -1.35 14.08 -1.31 13.25 C-1.28 12.38 -1.24 11.51 -1.21 10.62 C-0.92 7.05 -0.52 3.54 0 0 Z " fill="#684780" transform="translate(163,136)"/>
<path d="M0 0 C0.66 0 1.32 0 2 0 C2 1.65 2 3.3 2 5 C1.07 5.43 0.14 5.87 -0.81 6.31 C-3.47 7.72 -5.08 8.76 -7 11 C-8 9 -8 9 -7.38 6.56 C-5.72 3.47 -4.08 2.58 -1 1 C-0.67 0.67 -0.34 0.34 0 0 Z " fill="#F6DDCC" transform="translate(196,103)"/>
<path d="M0 0 C4.35 -0.09 8.49 -0.07 12.81 0.56 C15.69 0.96 17.31 0.97 20 0 C20.33 1.65 20.66 3.3 21 5 C20.35 4.87 19.69 4.73 19.02 4.6 C15.25 3.85 11.47 3.14 7.69 2.44 C6.95 2.3 6.21 2.16 5.44 2.02 C3.63 1.68 1.81 1.34 0 1 C0 0.67 0 0.34 0 0 Z " fill="#C7624A" transform="translate(268,22)"/>
<path d="M0 0 C2 1 2 1 3 2 C5.33 2.37 7.66 2.7 10 3 C10 3.33 10 3.66 10 4 C7.36 4 4.72 4 2 4 C1.67 8.29 1.34 12.58 1 17 C0.67 17 0.34 17 0 17 C-0.39 14.54 -0.76 12.09 -1.12 9.62 C-1.24 8.93 -1.35 8.23 -1.46 7.51 C-1.73 5.68 -1.87 3.84 -2 2 C-1.34 1.34 -0.68 0.68 0 0 Z " fill="#D2C3E0" transform="translate(230,233)"/>
<path d="M0 0 C0.66 0.99 1.32 1.98 2 3 C1.34 3 0.68 3 0 3 C0.33 5.31 0.66 7.62 1 10 C0.01 10 -0.98 10 -2 10 C-2.66 11.32 -3.32 12.64 -4 14 C-4.99 14 -5.98 14 -7 14 C-5.24 9.03 -2.61 4.57 0 0 Z " fill="#ECEAE5" transform="translate(365,200)"/>
<path d="M0 0 C0.99 0 1.98 0 3 0 C3 1.65 3 3.3 3 5 C1.68 5 0.36 5 -1 5 C-1.1 5.64 -1.21 6.28 -1.31 6.94 C-1.54 7.62 -1.77 8.3 -2 9 C-2.99 9.33 -3.98 9.66 -5 10 C-5.66 10.99 -6.32 11.98 -7 13 C-7 10.69 -7 8.38 -7 6 C-5.68 6 -4.36 6 -3 6 C-3 4.68 -3 3.36 -3 2 C-2.01 2 -1.02 2 0 2 C0 1.34 0 0.68 0 0 Z " fill="#D98E63" transform="translate(241,82)"/>
<path d="M0 0 C0.33 0.66 0.66 1.32 1 2 C1.66 2.33 2.32 2.66 3 3 C3 3.99 3 4.98 3 6 C4.65 6 6.3 6 8 6 C7.98 6.95 7.96 7.9 7.94 8.88 C7.77 11.91 7.77 11.91 9 14 C8.34 14.66 7.68 15.32 7 16 C5.83 13.9 4.66 11.8 3.5 9.69 C3.17 9.09 2.83 8.5 2.49 7.88 C0.93 5.04 0 3.29 0 0 Z " fill="#F3E8E3" transform="translate(360,69)"/>
<path d="M0 0 C1.24 3.58 0.75 6.34 0 10 C-0.66 10 -1.32 10 -2 10 C-1.67 11.65 -1.34 13.3 -1 15 C-1.64 15.27 -2.28 15.54 -2.94 15.81 C-5.33 16.89 -5.33 16.89 -6 20 C-6.33 19.34 -6.66 18.68 -7 18 C-6.11 15.47 -5.17 13.03 -4.12 10.56 C-1.94 5.33 -1.94 5.33 0 0 Z " fill="#EDE9E1" transform="translate(373,181)"/>
<path d="M0 0 C0.33 0.99 0.66 1.98 1 3 C2.33 3.34 3.66 3.68 5 4 C7 7 7 7 7 10 C11.46 9.5 11.46 9.5 16 9 C16 9.66 16 10.32 16 11 C8.25 12.12 8.25 12.12 6 11 C6 10.34 6 9.68 6 9 C5.34 9 4.68 9 4 9 C4 8.01 4 7.02 4 6 C3.34 6 2.68 6 2 6 C2 5.34 2 4.68 2 4 C1.01 3.67 0.02 3.34 -1 3 C-0.67 2.01 -0.34 1.02 0 0 Z " fill="#F6CEB9" transform="translate(187,129)"/>
<path d="M0 0 C2.97 0 5.94 0 9 0 C9.33 0.66 9.66 1.32 10 2 C13.03 2.66 13.03 2.66 16 3 C16 3.33 16 3.66 16 4 C14.06 4.03 12.13 4.05 10.19 4.06 C9.11 4.07 8.03 4.09 6.92 4.1 C4 4 4 4 1 3 C0.67 2.01 0.34 1.02 0 0 Z " fill="#512F72" transform="translate(256,247)"/>
<path d="M0 0 C1 3 1 3 1 5 C0.44 5.19 -0.11 5.37 -0.69 5.56 C-4.07 7.66 -5.85 10.71 -8 14 C-9.32 13.34 -10.64 12.68 -12 12 C-11.01 11.67 -10.02 11.34 -9 11 C-8.67 10.01 -8.34 9.02 -8 8 C-6.38 6.29 -4.71 4.63 -3 3 C-2.4 2.4 -1.8 1.8 -1.19 1.19 C-0.8 0.8 -0.4 0.4 0 0 Z " fill="#694781" transform="translate(316,195)"/>
<path d="M0 0 C0.99 0 1.98 0 3 0 C4.46 2.65 5 3.89 5 7 C5.66 7.33 6.32 7.66 7 8 C7 9.65 7 11.3 7 13 C6.34 13 5.68 13 5 13 C5 11.68 5 10.36 5 9 C4.01 9 3.02 9 2 9 C1.34 6.03 0.68 3.06 0 0 Z " fill="#D66933" transform="translate(263,168)"/>
<path d="M0 0 C0.54 0.23 1.07 0.45 1.62 0.69 C-4.06 4.57 -4.06 4.57 -6.62 5.56 C-9.33 7.3 -9.59 9.68 -10.38 12.69 C-11.03 12.36 -11.69 12.03 -12.38 11.69 C-11.72 9.38 -11.06 7.07 -10.38 4.69 C-9.72 4.69 -9.06 4.69 -8.38 4.69 C-8.38 4.03 -8.38 3.37 -8.38 2.69 C-2.96 -0.39 -2.96 -0.39 0 0 Z " fill="#D3764C" transform="translate(198.375,101.3125)"/>
<path d="M0 0 C1.13 0.02 2.27 0.04 3.44 0.06 C3.44 0.72 3.44 1.38 3.44 2.06 C4.1 2.06 4.76 2.06 5.44 2.06 C5.44 3.05 5.44 4.04 5.44 5.06 C4.12 4.73 2.8 4.4 1.44 4.06 C1.44 3.07 1.44 2.08 1.44 1.06 C0.74 1.39 0.03 1.72 -0.69 2.06 C-3.82 3.15 -6.27 3.22 -9.56 3.06 C-9.56 3.72 -9.56 4.38 -9.56 5.06 C-10.88 4.4 -12.2 3.74 -13.56 3.06 C-12.61 2.86 -12.61 2.86 -11.63 2.66 C-10.8 2.48 -9.98 2.31 -9.12 2.12 C-8.3 1.95 -7.48 1.78 -6.63 1.6 C-0.49 0.01 -0.49 0.01 0 0 Z " fill="#EFBEA1" transform="translate(215.5625,94.9375)"/>
<path d="M0 0 C-1.44 2 -1.44 2 -4 4 C-7.03 4.35 -9.96 4.23 -13 4 C-9.11 -0.46 -5.73 -1.91 0 0 Z " fill="#F1F0E8" transform="translate(277,269)"/>
<path d="M0 0 C0.99 0 1.98 0 3 0 C3.38 1.99 3.71 3.99 4 6 C3 7 3 7 0.44 7.06 C-0.77 7.03 -0.77 7.03 -2 7 C-2.33 6.01 -2.66 5.02 -3 4 C-1 1 -1 1 0 0 Z " fill="#562B73" transform="translate(269,242)"/>
<path d="M0 0 C1.32 0.33 2.64 0.66 4 1 C4 1.99 4 2.98 4 4 C6.47 4.99 6.47 4.99 9 6 C9 7.65 9 9.3 9 11 C6.96 9.38 4.96 7.71 3 6 C3 5.34 3 4.68 3 4 C2.34 4 1.68 4 1 4 C0.67 2.68 0.34 1.36 0 0 Z " fill="#743056" transform="translate(155,212)"/>
<path d="M0 0 C2.64 0.33 5.28 0.66 8 1 C8 1.66 8 2.32 8 3 C8.66 3 9.32 3 10 3 C10 3.66 10 4.32 10 5 C11.98 5.66 13.96 6.32 16 7 C16 7.66 16 8.32 16 9 C12.21 7.57 8.73 5.84 5.19 3.88 C4.21 3.34 3.24 2.8 2.23 2.24 C1.49 1.83 0.76 1.42 0 1 C0 0.67 0 0.34 0 0 Z " fill="#733155" transform="translate(184,240)"/>
<path d="M0 0 C1.65 0 3.3 0 5 0 C5 0.66 5 1.32 5 2 C3.68 2 2.36 2 1 2 C1 3.65 1 5.3 1 7 C-2.96 7 -6.92 7 -11 7 C-11 6.67 -11 6.34 -11 6 C-8.03 6 -5.06 6 -2 6 C-1.34 4.02 -0.68 2.04 0 0 Z " fill="#D59274" transform="translate(247,196)"/>
<path d="M0 0 C2 2 2 2 2.12 4.62 C2.08 5.41 2.04 6.19 2 7 C3.32 7 4.64 7 6 7 C6 7.66 6 8.32 6 9 C6.99 9 7.98 9 9 9 C9 9.66 9 10.32 9 11 C10.08 10.72 10.08 10.72 11.19 10.44 C14.13 9.98 16.14 10.26 19 11 C19 11.33 19 11.66 19 12 C11.57 13.29 11.57 13.29 8 12 C8 11.34 8 10.68 8 10 C7.01 10 6.02 10 5 10 C5 9.34 5 8.68 5 8 C3.68 8 2.36 8 1 8 C0.67 5.36 0.34 2.72 0 0 Z " fill="#F7CCB4" transform="translate(230,116)"/>
<path d="M0 0 C0.33 0 0.66 0 1 0 C1.25 5.62 1.25 5.62 -1 9 C-0.34 9.33 0.32 9.66 1 10 C-2.75 13 -2.75 13 -5 13 C-5.33 11.68 -5.66 10.36 -6 9 C-5.2 8.44 -4.39 7.89 -3.56 7.31 C-0.76 4.78 -0.31 3.67 0 0 Z " fill="#794F78" transform="translate(313,232)"/>
<path d="M0 0 C1.65 0.33 3.3 0.66 5 1 C4.67 2.65 4.34 4.3 4 6 C2.35 5.67 0.7 5.34 -1 5 C-0.67 3.35 -0.34 1.7 0 0 Z " fill="#F6BF97" transform="translate(269,196)"/>
<path d="M0 0 C2.97 0.5 2.97 0.5 6 1 C6 1.66 6 2.32 6 3 C6.89 2.9 7.77 2.79 8.69 2.69 C13.01 3.09 14.26 4.77 17 8 C14 8 14 8 11 6 C11 5.34 11 4.68 11 4 C8.69 4 6.38 4 4 4 C4 3.34 4 2.68 4 2 C2.68 1.34 1.36 0.68 0 0 Z " fill="#F9D8C3" transform="translate(214,194)"/>
<path d="M0 0 C0.66 0 1.32 0 2 0 C1.67 1.32 1.34 2.64 1 4 C-8.41 5.33 -8.41 5.33 -13 4 C-13 3.34 -13 2.68 -13 2 C-8.71 2 -4.42 2 0 2 C0 1.34 0 0.68 0 0 Z " fill="#F1CDB5" transform="translate(301,139)"/>
<path d="M0 0 C-0.66 2.97 -1.32 5.94 -2 9 C-4.84 9 -7.24 8.6 -10 8 C-8.68 7.67 -7.36 7.34 -6 7 C-5.85 6.1 -5.85 6.1 -5.69 5.19 C-4.72 2.11 -3.39 0 0 0 Z " fill="#D28564" transform="translate(262,118)"/>
<path d="M0 0 C0.33 0.66 0.66 1.32 1 2 C1.66 2 2.32 2 3 2 C3.33 1.34 3.66 0.68 4 0 C4.66 0.66 5.32 1.32 6 2 C3.69 4.97 1.38 7.94 -1 11 C-2.42 6.75 -1.19 4.28 0 0 Z " fill="#6D5582" transform="translate(318,63)"/>
<path d="M0 0 C0.66 0 1.32 0 2 0 C1.67 1.65 1.34 3.3 1 5 C0.07 5.21 -0.86 5.41 -1.81 5.62 C-5.26 6.74 -5.26 6.74 -6.88 10.12 C-7.25 11.07 -7.62 12.02 -8 13 C-9.04 9.87 -8.93 9.01 -8 6 C-7.34 6 -6.68 6 -6 6 C-6 5.34 -6 4.68 -6 4 C-4.02 3.67 -2.04 3.34 0 3 C0 2.01 0 1.02 0 0 Z " fill="#F7D8C5" transform="translate(277,146)"/>
<path d="M0 0 C0 2 0 2 -1.94 4 C-2.62 4.66 -3.3 5.32 -4 6 C-4.33 6.66 -4.66 7.32 -5 8 C-8.06 8.62 -8.06 8.62 -11 9 C-10.34 8.01 -9.68 7.02 -9 6 C-8.34 6 -7.68 6 -7 6 C-6.73 5.38 -6.46 4.76 -6.19 4.12 C-4.67 1.42 -3.22 0 0 0 Z " fill="#7C3857" transform="translate(178,46)"/>
<path d="M0 0 C0.33 0 0.66 0 1 0 C1.22 1.75 1.43 3.5 1.62 5.25 C1.74 6.22 1.86 7.2 1.98 8.2 C2 11.13 1.53 12.55 0 15 C-1 14 -1 14 -1.13 11.86 C-1.13 10.98 -1.13 10.09 -1.12 9.19 C-1.13 8.31 -1.13 7.44 -1.13 6.54 C-1.01 4.21 -0.66 2.23 0 0 Z " fill="#DBCDE6" transform="translate(227,238)"/>
<path d="M0 0 C1.49 0.99 1.49 0.99 3 2 C3 2.66 3 3.32 3 4 C3.56 4.27 4.11 4.54 4.69 4.81 C7.21 6.11 9.64 7.42 12 9 C12 9.66 12 10.32 12 11 C12.66 11.33 13.32 11.66 14 12 C13.01 12 12.02 12 11 12 C11 11.34 11 10.68 11 10 C8.35 8.92 5.72 7.91 3 7 C0 2.67 0 2.67 0 0 Z " fill="#BA5C4F" transform="translate(169,228)"/>
<path d="M0 0 C5.35 0.53 9.36 2.47 14 5 C10.26 6.25 9.56 5.45 6 4 C3.67 3.62 1.34 3.28 -1 3 C-0.67 2.01 -0.34 1.02 0 0 Z " fill="#D17342" transform="translate(274,62)"/>
<path d="M0 0 C2.12 0.38 2.12 0.38 4 1 C4 1.66 4 2.32 4 3 C3.34 3 2.68 3 2 3 C1.73 3.62 1.46 4.24 1.19 4.88 C0 7 0 7 -3 9 C-2.25 2.25 -2.25 2.25 0 0 Z " fill="#ECE6E5" transform="translate(153,48)"/>
<path d="M0 0 C1.65 0 3.3 0 5 0 C5 0.66 5 1.32 5 2 C4.34 2.66 3.68 3.32 3 4 C3.99 4 4.98 4 6 4 C6 4.66 6 5.32 6 6 C3.69 5.67 1.38 5.34 -1 5 C-1.33 4.01 -1.66 3.02 -2 2 C-1.34 2 -0.68 2 0 2 C0 1.34 0 0.68 0 0 Z " fill="#522970" transform="translate(223,224)"/>
<path d="M0 0 C1.46 4.52 0.27 7.52 -1 12 C-1.99 12 -2.98 12 -4 12 C-3.29 3.43 -3.29 3.43 0 0 Z " fill="#98552F" transform="translate(129,96)"/>
<path d="M0 0 C0.75 1.69 0.75 1.69 1 4 C-0.95 7.22 -2.1 8.73 -5.75 9.81 C-6.49 9.87 -7.24 9.94 -8 10 C-7.04 8.71 -6.08 7.42 -5.12 6.12 C-4.59 5.41 -4.06 4.69 -3.51 3.95 C-2 2 -2 2 0 0 Z " fill="#6B4B81" transform="translate(329,64)"/>
<path d="M0 0 C-6.75 4 -6.75 4 -9 4 C-9 4.66 -9 5.32 -9 6 C-10.65 6 -12.3 6 -14 6 C-11.73 3.46 -9.55 2.12 -6.44 0.75 C-5.65 0.39 -4.87 0.04 -4.06 -0.33 C-2 -1 -2 -1 0 0 Z " fill="#D28155" transform="translate(222,64)"/>
<path d="M0 0 C0 3.11 -0.54 4.35 -2 7 C-2.66 7 -3.32 7 -4 7 C-4.33 7.99 -4.66 8.98 -5 10 C-7.56 11.19 -7.56 11.19 -10 12 C-9.34 11.01 -8.68 10.02 -8 9 C-7.34 9 -6.68 9 -6 9 C-5.94 8.44 -5.88 7.89 -5.81 7.31 C-4.67 4.05 -2.51 2.31 0 0 Z " fill="#7B3653" transform="translate(166,55)"/>
<path d="M0 0 C2.97 0.49 2.97 0.49 6 1 C6 1.66 6 2.32 6 3 C6.66 3 7.32 3 8 3 C8 3.66 8 4.32 8 5 C8.66 5 9.32 5 10 5 C10 5.99 10 6.98 10 8 C6.05 6.33 3.18 3.82 0 1 C0 0.67 0 0.34 0 0 Z " fill="#E9DDD4" transform="translate(330,38)"/>
<path d="M0 0 C0.33 0 0.66 0 1 0 C1.38 2.25 1.38 2.25 1 5 C-2.13 7.58 -3.89 9 -8 9 C-6.69 7.5 -5.38 6 -4.06 4.5 C-3.33 3.66 -2.6 2.83 -1.85 1.97 C-1.24 1.32 -0.63 0.67 0 0 Z " fill="#EDE6DB" transform="translate(351,222)"/>
<path d="M0 0 C0.33 0.66 0.66 1.32 1 2 C-0.06 5.06 -0.06 5.06 -2 8 C-5.19 8.88 -5.19 8.88 -8 9 C-8 8.34 -8 7.68 -8 7 C-6.01 5.66 -4.01 4.32 -2 3 C-1.34 2.01 -0.68 1.02 0 0 Z " fill="#D6834E" transform="translate(297,175)"/>
<path d="M0 0 C0 3.55 -0.99 5.49 -2.5 8.69 C-3.2 10.18 -3.2 10.18 -3.91 11.7 C-4.27 12.46 -4.63 13.22 -5 14 C-7 11 -7 11 -6.68 9.06 C-5.1 5 -3.99 2.2 0 0 Z " fill="#E5E4D9" transform="translate(135,78)"/>
<path d="M0 0 C-0.33 1.32 -0.66 2.64 -1 4 C-2.98 4 -4.96 4 -7 4 C-7.33 3.01 -7.66 2.02 -8 1 C-5.29 -0.35 -2.99 -0.07 0 0 Z " fill="#553470" transform="translate(279,54)"/>
<path d="M0 0 C2.64 0.33 5.28 0.66 8 1 C8.66 2.98 9.32 4.96 10 7 C6.42 5.35 3.22 3.27 0 1 C0 0.67 0 0.34 0 0 Z " fill="#C8604D" transform="translate(315,40)"/>
<path d="M0 0 C0.33 1.32 0.66 2.64 1 4 C1.66 4 2.32 4 3 4 C3 4.99 3 5.98 3 7 C2.01 7.33 1.02 7.66 0 8 C-1.69 10 -1.69 10 -3 12 C-2.69 10.37 -2.38 8.75 -2.06 7.12 C-1.89 6.22 -1.71 5.32 -1.54 4.38 C-1 2 -1 2 0 0 Z " fill="#D4C5DE" transform="translate(249,28)"/>
<path d="M0 0 C1.32 1.65 2.64 3.3 4 5 C3.01 6.49 3.01 6.49 2 8 C1.34 8 0.68 8 0 8 C0 7.01 0 6.02 0 5 C-0.66 5 -1.32 5 -2 5 C-1.34 3.35 -0.68 1.7 0 0 Z " fill="#E1B097" transform="translate(261,170)"/>
<path d="M0 0 C1.65 0.33 3.3 0.66 5 1 C5 2.65 5 4.3 5 6 C2.36 5.34 -0.28 4.68 -3 4 C-2.01 2.68 -1.02 1.36 0 0 Z " fill="#F8E0D3" transform="translate(201,99)"/>
<path d="M0 0 C2.48 0.5 2.48 0.5 5 1 C5 1.66 5 2.32 5 3 C6.65 3.33 8.3 3.66 10 4 C10 4.99 10 5.98 10 7 C6.41 5.67 3.16 4.17 0 2 C0 1.34 0 0.68 0 0 Z " fill="#F0E5E1" transform="translate(311,24)"/>
<path d="M0 0 C0 0.99 0 1.98 0 3 C-3.63 3 -7.26 3 -11 3 C-7.12 0.41 -4.57 -0.12 0 0 Z " fill="#FAEBFE" transform="translate(267,252)"/>
<path d="M0 0 C0 0.66 0 1.32 0 2 C-0.66 2 -1.32 2 -2 2 C-2 2.66 -2 3.32 -2 4 C-4.88 4.12 -4.88 4.12 -8 4 C-8.66 3.34 -9.32 2.68 -10 2 C-3.38 0 -3.38 0 0 0 Z " fill="#D5662D" transform="translate(221,136)"/>
<path d="M0 0 C0.99 0.33 1.98 0.66 3 1 C2.34 1 1.68 1 1 1 C1 1.66 1 2.32 1 3 C0.01 3 -0.98 3 -2 3 C-2.33 4.65 -2.66 6.3 -3 8 C-3.99 7.67 -4.98 7.34 -6 7 C-5.67 5.35 -5.34 3.7 -5 2 C-3.35 2 -1.7 2 0 2 C0 1.34 0 0.68 0 0 Z " fill="#F4D8C6" transform="translate(249,80)"/>
<path d="M0 0 C1.98 0.99 1.98 0.99 4 2 C3.67 3.65 3.34 5.3 3 7 C2.01 7 1.02 7 0 7 C0 4.69 0 2.38 0 0 Z " fill="#EFDCF2" transform="translate(191,63)"/>
<path d="M0 0 C3.49 0.23 6.55 1.14 9.88 2.19 C9.88 2.52 9.88 2.85 9.88 3.19 C8.08 3.24 6.29 3.28 4.5 3.31 C3.5 3.34 2.5 3.36 1.48 3.38 C-1.12 3.19 -1.12 3.19 -3.12 1.19 C-2.12 0.19 -2.12 0.19 0 0 Z " fill="#F8ECFC" transform="translate(234.125,232.8125)"/>
<path d="M0 0 C0.33 0.66 0.66 1.32 1 2 C1.66 2 2.32 2 3 2 C3.33 4.31 3.66 6.62 4 9 C3.01 9 2.02 9 1 9 C0.67 6.03 0.34 3.06 0 0 Z " fill="#995030" transform="translate(372,102)"/>
<path d="M0 0 C1.32 0 2.64 0 4 0 C4.99 3.63 5.98 7.26 7 11 C2.81 8.2 1.57 4.7 0 0 Z " fill="#A5544B" transform="translate(345,68)"/>
<path d="M0 0 C0.99 0 1.98 0 3 0 C2.67 4.29 2.34 8.58 2 13 C1.34 13 0.68 13 0 13 C0 8.67 0 4.33 0 0 Z " fill="#755D8C" transform="translate(279,39)"/>
<path d="M0 0 C1.98 0.99 3.96 1.98 6 3 C4 5 4 5 1.38 5.12 C0.59 5.08 -0.19 5.04 -1 5 C-1 2 -1 2 0 0 Z " fill="#EEECE7" transform="translate(181,251)"/>
<path d="M0 0 C1.32 0 2.64 0 4 0 C3.67 2.31 3.34 4.62 3 7 C2.34 5.68 1.68 4.36 1 3 C0.01 3.99 -0.98 4.98 -2 6 C-1.34 4.02 -0.68 2.04 0 0 Z " fill="#DBC6E6" transform="translate(220,230)"/>
<path d="M0 0 C2.97 0.5 2.97 0.5 6 1 C6 1.99 6 2.98 6 4 C6.66 4.33 7.32 4.66 8 5 C8 5.66 8 6.32 8 7 C4.2 5.51 2.39 3.24 0 0 Z " fill="#D17745" transform="translate(191,198)"/>
<path d="M0 0 C0.33 0 0.66 0 1 0 C2.43 4.67 3.4 9.13 4 14 C3.67 13.01 3.34 12.02 3 11 C2.34 11 1.68 11 1 11 C-0.28 7.15 -0.07 4.05 0 0 Z " fill="#D78A5C" transform="translate(187,161)"/>
<path d="M0 0 C2.3 3.45 2.14 4.23 1.62 8.19 C1.51 9.09 1.4 9.99 1.29 10.92 C1.19 11.61 1.1 12.29 1 13 C-0.91 9.83 -1.16 7.89 -0.62 4.25 C-0.51 3.45 -0.4 2.65 -0.29 1.83 C-0.19 1.22 -0.1 0.62 0 0 Z " fill="#ECE7E1" transform="translate(120,115)"/>
<path d="M0 0 C3.96 0 7.92 0 12 0 C12.33 1.32 12.66 2.64 13 4 C11.68 3.67 10.36 3.34 9 3 C9 2.34 9 1.68 9 1 C6.36 1.33 3.72 1.66 1 2 C0.67 1.34 0.34 0.68 0 0 Z " fill="#E09269" transform="translate(287,97)"/>
<path d="M0 0 C0.66 0.33 1.32 0.66 2 1 C1.02 2.34 0.04 3.67 -0.94 5 C-1.48 5.74 -2.03 6.48 -2.59 7.25 C-3.29 8.12 -3.29 8.12 -4 9 C-4.33 9 -4.66 9 -5 9 C-5.12 4.25 -5.12 4.25 -4 2 C-2.68 2 -1.36 2 0 2 C0 1.34 0 0.68 0 0 Z " fill="#EFE8E5" transform="translate(148,57)"/>
<path d="M0 0 C-1.58 0.7 -3.16 1.39 -4.75 2.06 C-5.63 2.45 -6.51 2.83 -7.42 3.22 C-10.15 4.05 -11.37 3.98 -14 3 C-4.13 -1.28 -4.13 -1.28 0 0 Z " fill="#7B3358" transform="translate(216,28)"/>
<path d="M0 0 C0.91 0.1 1.82 0.2 2.76 0.31 C3.46 0.39 4.16 0.48 4.88 0.56 C4.88 0.89 4.88 1.22 4.88 1.56 C3.25 1.78 1.63 1.99 0 2.19 C-1.36 2.36 -1.36 2.36 -2.74 2.54 C-3.53 2.55 -4.31 2.55 -5.12 2.56 C-5.78 1.9 -6.44 1.24 -7.12 0.56 C-4.5 -0.75 -2.89 -0.33 0 0 Z " fill="#EEE7DB" transform="translate(219.125,12.4375)"/>
<path d="M0 0 C-4.62 4.88 -4.62 4.88 -8 6 C-8 3 -8 3 -6.81 1.31 C-4.44 -0.4 -2.86 -0.23 0 0 Z " fill="#CD7245" transform="translate(305,202)"/>
<path d="M0 0 C-2.76 2.76 -5.21 2.58 -9 3 C-9 2.01 -9 1.02 -9 0 C-5.93 -1.53 -3.3 -0.55 0 0 Z " fill="#735889" transform="translate(225,50)"/>
<path d="M0 0 C1.98 0 3.96 0 6 0 C5.67 1.32 5.34 2.64 5 4 C3.35 4 1.7 4 0 4 C0 2.68 0 1.36 0 0 Z " fill="#F8ECFE" transform="translate(250,28)"/>
<path d="M0 0 C0.33 0.66 0.66 1.32 1 2 C1.66 2 2.32 2 3 2 C2 4 2 4 1 5 C1.41 7.05 1.41 7.05 2 9 C1.34 9 0.68 9 0 9 C-0.99 7.02 -1.98 5.04 -3 3 C-2.34 3 -1.68 3 -1 3 C-0.67 2.01 -0.34 1.02 0 0 Z " fill="#D9CCE5" transform="translate(288,239)"/>
<path d="M0 0 C2.52 3.12 4.27 6.38 6 10 C4.12 9.81 4.12 9.81 2 9 C0.22 5.7 0 3.82 0 0 Z " fill="#E6DFDB" transform="translate(134,200)"/>
<path d="M0 0 C0.33 0 0.66 0 1 0 C1.12 7.75 1.12 7.75 0 10 C-0.66 10 -1.32 10 -2 10 C-1.12 2.25 -1.12 2.25 0 0 Z " fill="#BD5F47" transform="translate(366,168)"/>
<path d="M0 0 C-0.99 0 -1.98 0 -3 0 C-3 0.66 -3 1.32 -3 2 C-3.66 2 -4.32 2 -5 2 C-5 2.66 -5 3.32 -5 4 C-6.98 3.34 -8.96 2.68 -11 2 C-7 -0.07 -4.44 -1.38 0 0 Z " fill="#DDD8D3" transform="translate(289,266)"/>
<path d="M0 0 C2.64 0 5.28 0 8 0 C8.33 0.99 8.66 1.98 9 3 C6.03 3 3.06 3 0 3 C0 2.01 0 1.02 0 0 Z " fill="#EEC2A4" transform="translate(279,182)"/>
<path d="M0 0 C0.99 0 1.98 0 3 0 C3.87 2.99 4.11 5.64 4.06 8.75 C4.05 9.55 4.04 10.35 4.04 11.17 C4.02 12.08 4.02 12.08 4 13 C3.67 13 3.34 13 3 13 C3 10.69 3 8.38 3 6 C2.34 6 1.68 6 1 6 C1.33 4.35 1.66 2.7 2 1 C1.34 0.67 0.68 0.34 0 0 Z " fill="#E09E7C" transform="translate(265,177)"/>
<path d="M0 0 C1.65 0 3.3 0 5 0 C5.33 0.99 5.66 1.98 6 3 C8 4.21 8 4.21 10 5 C7.69 5 5.38 5 3 5 C3 4.01 3 3.02 3 2 C2.01 1.34 1.02 0.68 0 0 Z " fill="#DD9C7B" transform="translate(302,138)"/>
<path d="M0 0 C1.12 1.75 1.12 1.75 2 4 C1.07 6.7 0.58 7.71 -2 9 C-1.12 2.25 -1.12 2.25 0 0 Z " fill="#D17851" transform="translate(173,109)"/>
<path d="M0 0 C0.99 0.33 1.98 0.66 3 1 C1.35 2.65 -0.3 4.3 -2 6 C-2.33 5.01 -2.66 4.02 -3 3 C-2.01 2.01 -1.02 1.02 0 0 Z " fill="#F6E4FC" transform="translate(309,58)"/>
<path d="M0 0 C0.99 0 1.98 0 3 0 C4.69 2 4.69 2 6 4 C5.01 4 4.02 4 3 4 C3 4.66 3 5.32 3 6 C1.68 6.33 0.36 6.66 -1 7 C-0.67 6.34 -0.34 5.68 0 5 C0.66 5 1.32 5 2 5 C1.34 3.35 0.68 1.7 0 0 Z " fill="#81648F" transform="translate(210,54)"/>
<path d="M0 0 C0.99 0.33 1.98 0.66 3 1 C3 1.99 3 2.98 3 4 C3.66 4 4.32 4 5 4 C4.67 5.32 4.34 6.64 4 8 C3.34 8 2.68 8 2 8 C2 6.35 2 4.7 2 3 C1.34 3 0.68 3 0 3 C0 2.01 0 1.02 0 0 Z " fill="#502F72" transform="translate(236,44)"/>
<path d="M0 0 C0.66 0 1.32 0 2 0 C2 0.99 2 1.98 2 3 C2.99 3.33 3.98 3.66 5 4 C4.67 4.66 4.34 5.32 4 6 C2.68 5.67 1.36 5.34 0 5 C0 3.35 0 1.7 0 0 Z " fill="#583A6F" transform="translate(276,235)"/>
<path d="M0 0 C2.44 0.69 2.44 0.69 5 2 C5.81 4.62 5.81 4.62 6 7 C3.96 5.38 1.96 3.71 0 2 C0 1.34 0 0.68 0 0 Z " fill="#D5814C" transform="translate(185,191)"/>
<path d="M0 0 C0.99 0.33 1.98 0.66 3 1 C2.34 1 1.68 1 1 1 C0.78 1.93 0.78 1.93 0.56 2.88 C0 5 0 5 -1 7 C-2.32 6.67 -3.64 6.34 -5 6 C-3.62 4.5 -3.62 4.5 -2 3 C-1.34 3 -0.68 3 0 3 C0 2.01 0 1.02 0 0 Z " fill="#DC8861" transform="translate(303,168)"/>
<path d="M0 0 C0.99 0.33 1.98 0.66 3 1 C4.37 4.2 3.83 6.7 3 10 C1.12 6.73 0.51 3.72 0 0 Z " fill="#694783" transform="translate(332,114)"/>
<path d="M0 0 C3.01 3.01 2.6 5.82 3 10 C2.67 9.34 2.34 8.68 2 8 C1.34 8 0.68 8 0 8 C0 5.36 0 2.72 0 0 Z " fill="#712F5B" transform="translate(363,104)"/>
<path d="M0 0 C0.33 0.66 0.66 1.32 1 2 C0.67 2.66 0.34 3.32 0 4 C-0.99 4 -1.98 4 -3 4 C-3 4.66 -3 5.32 -3 6 C-4.32 6 -5.64 6 -7 6 C-7 5.34 -7 4.68 -7 4 C-6.03 3.53 -5.06 3.05 -4.06 2.56 C-1.2 1.3 -1.2 1.3 0 0 Z " fill="#A65532" transform="translate(167,42)"/>
<path d="M0 0 C1.65 1.65 3.3 3.3 5 5 C4.34 5.66 3.68 6.32 3 7 C0 5 0 5 -0.75 2.94 C-0.83 2.3 -0.91 1.66 -1 1 C-0.67 0.67 -0.34 0.34 0 0 Z " fill="#EEE6E0" transform="translate(145,218)"/>
<path d="M0 0 C0.33 0.66 0.66 1.32 1 2 C0.06 4.62 0.06 4.62 -1 7 C-2.32 6.67 -3.64 6.34 -5 6 C-3.35 4.02 -1.7 2.04 0 0 Z " fill="#BF5749" transform="translate(347,210)"/>
<path d="M0 0 C6.62 -0.25 6.62 -0.25 10 2 C6.34 2.75 3.58 3.24 0 2 C0 1.34 0 0.68 0 0 Z " fill="#F4D5B4" transform="translate(267,139)"/>
<path d="M0 0 C0.99 0 1.98 0 3 0 C2.34 2.97 1.68 5.94 1 9 C0.17 5.69 -0.09 3.34 0 0 Z " fill="#E8E3DC" transform="translate(124,97)"/>
</svg>
